<?xml version="1.0" encoding="UTF-8" standalone="no"?>
<!-- Created with Inkscape (http://www.inkscape.org/) -->

<svg
   xmlns:dc="http://purl.org/dc/elements/1.1/"
   xmlns:cc="http://creativecommons.org/ns#"
   xmlns:rdf="http://www.w3.org/1999/02/22-rdf-syntax-ns#"
   xmlns:svg="http://www.w3.org/2000/svg"
   xmlns="http://www.w3.org/2000/svg"
   xmlns:sodipodi="http://sodipodi.sourceforge.net/DTD/sodipodi-0.dtd"
   xmlns:inkscape="http://www.inkscape.org/namespaces/inkscape"
   width="284"
   height="284"
   viewBox="0 0 75.141665 75.141669"
   version="1.1"
   id="svg5234"
   inkscape:version="0.92.2 (5c3e80d, 2017-08-06)"
   sodipodi:docname="crater.svg">
  <defs
     id="defs5228" />
  <sodipodi:namedview
     id="base"
     pagecolor="#ffffff"
     bordercolor="#666666"
     borderopacity="1.0"
     inkscape:pageopacity="0.0"
     inkscape:pageshadow="2"
     inkscape:zoom="0.35"
     inkscape:cx="-532.28572"
     inkscape:cy="-269.42856"
     inkscape:document-units="mm"
     inkscape:current-layer="layer1"
     showgrid="false"
     inkscape:window-width="1440"
     inkscape:window-height="837"
     inkscape:window-x="-8"
     inkscape:window-y="-8"
     inkscape:window-maximized="1"
     units="px"
     fit-margin-top="10"
     fit-margin-left="10"
     fit-margin-bottom="10"
     fit-margin-right="10" />
  <metadata
     id="metadata5231">
    <rdf:RDF>
      <cc:Work
         rdf:about="">
        <dc:format>image/svg+xml</dc:format>
        <dc:type
           rdf:resource="http://purl.org/dc/dcmitype/StillImage" />
        <dc:title></dc:title>
      </cc:Work>
    </rdf:RDF>
  </metadata>
  <g
     inkscape:label="Layer 1"
     inkscape:groupmode="layer"
     id="layer1"
     transform="translate(-0.98273987,-2.4053541)">
    <g
       id="g5870"
       transform="translate(-12.564481,127.61067)">
      <circle
         r="34.924999"
         cy="-87.634483"
         cx="51.118053"
         id="path1798"
         style="opacity:1;fill:#788ec2;fill-opacity:1;stroke:none;stroke-width:1.05833328;stroke-linejoin:bevel;stroke-miterlimit:4;stroke-dasharray:none;stroke-opacity:1" />
      <ellipse
         ry="30.922674"
         rx="31.862169"
         cy="-90.978508"
         cx="49.577091"
         id="path2167"
         style="opacity:1;fill:#879ac8;fill-opacity:1;stroke:none;stroke-width:0.75966954;stroke-linejoin:bevel;stroke-miterlimit:4;stroke-dasharray:none;stroke-opacity:1" />
      <g
         transform="rotate(-18.95799,13.876772,-144.78987)"
         id="g1825">
        <path
           sodipodi:nodetypes="cc"
           inkscape:connector-curvature="0"
           id="path1819"
           d="m 26.005325,-107.85988 c 1.727695,-2.30863 5.334688,-1.5309 6.503421,0.26491"
           style="fill:none;stroke:#3c5285;stroke-width:0.26458332px;stroke-linecap:butt;stroke-linejoin:miter;stroke-opacity:1" />
        <ellipse
           ry="2.1166666"
           rx="4.1010418"
           cy="-108.87083"
           cx="29.236458"
           id="ellipse1821"
           style="opacity:1;fill:none;fill-opacity:1;stroke:#95a6cf;stroke-width:0.5291667;stroke-linejoin:bevel;stroke-miterlimit:4;stroke-dasharray:none;stroke-opacity:1" />
        <path
           transform="scale(0.26458333)"
           inkscape:connector-curvature="0"
           id="path1823"
           d="m 122.58946,-408.1898 c -0.13605,-0.22014 -1.18838,-1.09298 -2.3385,-1.93965 -6.46771,-4.76126 -15.45391,-4.61628 -20.746937,0.33473 -1.647018,1.54059 -1.752072,1.58498 -2.30497,0.97404 -3.319439,-3.66794 0.866092,-7.94884 9.061757,-9.26823 5.23533,-0.84282 12.07791,0.17984 15.45114,2.30927 1.87049,1.18079 3.18324,2.87628 3.18324,4.11134 0,1.80096 -1.72973,4.41049 -2.30573,3.4785 z"
           style="opacity:1;fill:#3e5489;fill-opacity:1;stroke:#3c5285;stroke-width:0.70710677;stroke-linejoin:bevel;stroke-miterlimit:4;stroke-dasharray:none;stroke-opacity:1" />
      </g>
      <g
         inkscape:transform-center-y="3.1554758"
         inkscape:transform-center-x="0.033116147"
         transform="matrix(0.81134677,-1.1289248,1.3003999,0.93458409,144.32488,34.161597)"
         id="g1833">
        <path
           sodipodi:nodetypes="cc"
           inkscape:connector-curvature="0"
           id="path1827"
           d="m 26.005325,-107.85988 c 1.727695,-2.30863 5.334688,-1.5309 6.503421,0.26491"
           style="fill:none;stroke:#3c5285;stroke-width:0.26458332px;stroke-linecap:butt;stroke-linejoin:miter;stroke-opacity:1" />
        <ellipse
           ry="2.1166666"
           rx="4.1010418"
           cy="-108.87083"
           cx="29.236458"
           id="ellipse1829"
           style="opacity:1;fill:none;fill-opacity:1;stroke:#95a6cf;stroke-width:0.5291667;stroke-linejoin:bevel;stroke-miterlimit:4;stroke-dasharray:none;stroke-opacity:1" />
        <path
           transform="scale(0.26458333)"
           inkscape:connector-curvature="0"
           id="path1831"
           d="m 122.58946,-408.1898 c -0.13605,-0.22014 -1.18838,-1.09298 -2.3385,-1.93965 -6.46771,-4.76126 -15.45391,-4.61628 -20.746937,0.33473 -1.647018,1.54059 -1.752072,1.58498 -2.30497,0.97404 -3.319439,-3.66794 0.866092,-7.94884 9.061757,-9.26823 5.23533,-0.84282 12.07791,0.17984 15.45114,2.30927 1.87049,1.18079 3.18324,2.87628 3.18324,4.11134 0,1.80096 -1.72973,4.41049 -2.30573,3.4785 z"
           style="opacity:1;fill:#3e5489;fill-opacity:1;stroke:#3c5285;stroke-width:0.70710677;stroke-linejoin:bevel;stroke-miterlimit:4;stroke-dasharray:none;stroke-opacity:1" />
      </g>
      <g
         transform="matrix(0.77684529,0.24900964,-0.27048651,0.84384754,9.4248812,-31.364525)"
         id="g1841">
        <path
           sodipodi:nodetypes="cc"
           inkscape:connector-curvature="0"
           id="path1835"
           d="m 26.005325,-107.85988 c 1.727695,-2.30863 5.334688,-1.5309 6.503421,0.26491"
           style="fill:none;stroke:#3c5285;stroke-width:0.26458332px;stroke-linecap:butt;stroke-linejoin:miter;stroke-opacity:1" />
        <ellipse
           ry="2.1166666"
           rx="4.1010418"
           cy="-108.87083"
           cx="29.236458"
           id="ellipse1837"
           style="opacity:1;fill:none;fill-opacity:1;stroke:#95a6cf;stroke-width:0.5291667;stroke-linejoin:bevel;stroke-miterlimit:4;stroke-dasharray:none;stroke-opacity:1" />
        <path
           transform="scale(0.26458333)"
           inkscape:connector-curvature="0"
           id="path1839"
           d="m 122.58946,-408.1898 c -0.13605,-0.22014 -1.18838,-1.09298 -2.3385,-1.93965 -6.46771,-4.76126 -15.45391,-4.61628 -20.746937,0.33473 -1.647018,1.54059 -1.752072,1.58498 -2.30497,0.97404 -3.319439,-3.66794 0.866092,-7.94884 9.061757,-9.26823 5.23533,-0.84282 12.07791,0.17984 15.45114,2.30927 1.87049,1.18079 3.18324,2.87628 3.18324,4.11134 0,1.80096 -1.72973,4.41049 -2.30573,3.4785 z"
           style="opacity:1;fill:#3e5489;fill-opacity:1;stroke:#3c5285;stroke-width:0.70710677;stroke-linejoin:bevel;stroke-miterlimit:4;stroke-dasharray:none;stroke-opacity:1" />
      </g>
      <g
         inkscape:transform-center-y="-13.720211"
         inkscape:transform-center-x="24.028261"
         transform="matrix(-1.1228469,0.28086184,-0.23276219,-1.35488,64.266851,-214.58215)"
         id="g1857">
        <path
           sodipodi:nodetypes="cc"
           inkscape:connector-curvature="0"
           id="path1851"
           d="m 26.005325,-107.85988 c 1.727695,-2.30863 5.334688,-1.5309 6.503421,0.26491"
           style="fill:none;stroke:#3c5285;stroke-width:0.26458332px;stroke-linecap:butt;stroke-linejoin:miter;stroke-opacity:1" />
        <ellipse
           ry="2.1166666"
           rx="4.1010418"
           cy="-108.87083"
           cx="29.236458"
           id="ellipse1853"
           style="opacity:1;fill:none;fill-opacity:1;stroke:#95a6cf;stroke-width:0.5291667;stroke-linejoin:bevel;stroke-miterlimit:4;stroke-dasharray:none;stroke-opacity:1" />
        <path
           transform="scale(0.26458333)"
           inkscape:connector-curvature="0"
           id="path1855"
           d="m 122.58946,-408.1898 c -0.13605,-0.22014 -1.18838,-1.09298 -2.3385,-1.93965 -6.46771,-4.76126 -15.45391,-4.61628 -20.746937,0.33473 -1.647018,1.54059 -1.752072,1.58498 -2.30497,0.97404 -3.319439,-3.66794 0.866092,-7.94884 9.061757,-9.26823 5.23533,-0.84282 12.07791,0.17984 15.45114,2.30927 1.87049,1.18079 3.18324,2.87628 3.18324,4.11134 0,1.80096 -1.72973,4.41049 -2.30573,3.4785 z"
           style="opacity:1;fill:#3e5489;fill-opacity:1;stroke:#3c5285;stroke-width:0.70710677;stroke-linejoin:bevel;stroke-miterlimit:4;stroke-dasharray:none;stroke-opacity:1" />
      </g>
      <g
         transform="translate(-16.536458,2.38125)"
         id="g1894">
        <path
           sodipodi:nodetypes="cc"
           inkscape:connector-curvature="0"
           id="path1867"
           d="m 90.511428,-80.983695 c 1.381128,5.201426 -3.837073,8.634187 -7.762305,7.698233"
           style="fill:none;stroke:#3c5285;stroke-width:0.48040769px;stroke-linecap:butt;stroke-linejoin:miter;stroke-opacity:1" />
        <ellipse
           ry="4.1559281"
           rx="6.8861041"
           cy="-13.983158"
           cx="-115.43283"
           id="ellipse1869"
           style="opacity:1;fill:none;fill-opacity:1;stroke:#95a6cf;stroke-width:0.96081549;stroke-linejoin:bevel;stroke-miterlimit:4;stroke-dasharray:none;stroke-opacity:1"
           transform="rotate(132.51043)" />
        <path
           inkscape:connector-curvature="0"
           id="path1871"
           d="m 83.419187,-72.83893 c 0.125144,0.03272 0.775303,-0.0055 1.444798,-0.08496 3.764911,-0.446763 6.407054,-3.440561 6.100058,-6.911951 -0.09553,-1.080182 -0.08099,-1.130169 0.31895,-1.096778 2.401117,0.200478 2.783968,3.073941 0.828879,6.221103 -1.248895,2.010384 -3.694664,3.892285 -5.522764,4.24949 -1.0137,0.198074 -2.057068,0.03282 -2.530028,-0.40073 -0.689669,-0.632196 -1.16971,-2.114699 -0.639893,-1.976174 z"
           style="opacity:1;fill:#3e5489;fill-opacity:1;stroke:#3c5285;stroke-width:0.33969954;stroke-linejoin:bevel;stroke-miterlimit:4;stroke-dasharray:none;stroke-opacity:1" />
      </g>
      <ellipse
         style="opacity:1;fill:none;fill-opacity:1;stroke:#95a6cf;stroke-width:0.72089183;stroke-linejoin:bevel;stroke-miterlimit:4;stroke-dasharray:none;stroke-opacity:1"
         id="ellipse1877"
         cx="48.418755"
         cy="-92.50708"
         rx="4.1010418"
         ry="3.9283273" />
      <path
         inkscape:connector-curvature="0"
         id="path1886"
         d="m 47.039172,-89.195329 c -1.305743,-0.463085 -2.296171,-1.846321 -2.298647,-3.210298 -0.0019,-1.028497 0.236532,-1.67676 0.879687,-2.392106 1.889598,-2.101686 5.465953,-1.412013 6.34111,1.222838 0.60271,1.814592 -0.556165,3.934759 -2.43613,4.456911 -0.677749,0.188241 -1.839032,0.152112 -2.48602,-0.07734 z"
         style="opacity:1;fill:#3e5489;fill-opacity:1;stroke:#3c5285;stroke-width:0.26458332;stroke-linejoin:bevel;stroke-miterlimit:4;stroke-dasharray:none;stroke-opacity:1" />
      <ellipse
         ry="3.3129778"
         rx="3.4748776"
         cy="-92.620613"
         cx="48.401588"
         id="path1896"
         style="opacity:1;fill:#788ec2;fill-opacity:1;stroke:none;stroke-width:0.67684489;stroke-linejoin:bevel;stroke-miterlimit:4;stroke-dasharray:none;stroke-opacity:1" />
      <g
         id="g1965">
        <ellipse
           style="opacity:1;fill:none;fill-opacity:1;stroke:#95a6cf;stroke-width:0.42669868;stroke-linejoin:bevel;stroke-miterlimit:4;stroke-dasharray:none;stroke-opacity:1"
           id="ellipse1903"
           cx="56.885422"
           cy="-81.262291"
           rx="2.396055"
           ry="2.3556323" />
        <path
           inkscape:connector-curvature="0"
           id="path1905"
           d="m 56.079393,-79.276387 c -0.762887,-0.27769 -1.34155,-1.107151 -1.342997,-1.925064 -0.0011,-0.616741 0.138195,-1.005474 0.513962,-1.434433 1.104008,-1.260282 3.193511,-0.846717 3.704826,0.733278 0.352137,1.088125 -0.324942,2.359489 -1.423321,2.672599 -0.395979,0.112879 -1.074464,0.09121 -1.45247,-0.04638 z"
           style="opacity:1;fill:#3e5489;fill-opacity:1;stroke:#3c5285;stroke-width:0.15660791;stroke-linejoin:bevel;stroke-miterlimit:4;stroke-dasharray:none;stroke-opacity:1" />
        <ellipse
           ry="1.6939027"
           rx="1.8662541"
           cy="-81.594955"
           cx="56.743095"
           id="ellipse1907"
           style="opacity:1;fill:#788ec2;fill-opacity:1;stroke:none;stroke-width:0.35468251;stroke-linejoin:bevel;stroke-miterlimit:4;stroke-dasharray:none;stroke-opacity:1" />
      </g>
      <ellipse
         ry="2.3420303"
         rx="2.7028744"
         cy="-106.01472"
         cx="51.130737"
         id="ellipse1919"
         style="opacity:1;fill:none;fill-opacity:1;stroke:#95a6cf;stroke-width:0.45188543;stroke-linejoin:bevel;stroke-miterlimit:4;stroke-dasharray:none;stroke-opacity:1" />
      <path
         style="opacity:1;fill:#3e5489;fill-opacity:1;stroke:#3c5285;stroke-width:0.16585201;stroke-linejoin:bevel;stroke-miterlimit:4;stroke-dasharray:none;stroke-opacity:1"
         d="m 50.221492,-104.0403 c -0.860576,-0.27608 -1.513338,-1.10076 -1.51497,-1.91395 -0.0012,-0.61317 0.155891,-0.99966 0.579775,-1.42615 1.245378,-1.253 3.602447,-0.84182 4.179237,0.72905 0.397228,1.08184 -0.366552,2.34586 -1.605581,2.65717 -0.446684,0.11222 -1.212051,0.0907 -1.638461,-0.0461 z"
         id="path1921"
         inkscape:connector-curvature="0" />
      <ellipse
         style="opacity:1;fill:#788ec2;fill-opacity:1;stroke:none;stroke-width:0.38880801;stroke-linejoin:bevel;stroke-miterlimit:4;stroke-dasharray:none;stroke-opacity:1"
         id="ellipse1923"
         cx="51.053276"
         cy="-105.61939"
         rx="2.1713772"
         ry="1.7495037" />
      <g
         inkscape:transform-center-y="-1.441757"
         inkscape:transform-center-x="3.982455"
         transform="rotate(87.23076,45.829418,-71.980665)"
         id="g1942">
        <path
           sodipodi:nodetypes="cc"
           inkscape:connector-curvature="0"
           id="path1936"
           d="m 26.005325,-107.85988 c 1.727695,-2.30863 5.334688,-1.5309 6.503421,0.26491"
           style="fill:none;stroke:#3c5285;stroke-width:0.26458332px;stroke-linecap:butt;stroke-linejoin:miter;stroke-opacity:1" />
        <ellipse
           ry="2.1166666"
           rx="4.1010418"
           cy="-108.87083"
           cx="29.236458"
           id="ellipse1938"
           style="opacity:1;fill:none;fill-opacity:1;stroke:#95a6cf;stroke-width:0.5291667;stroke-linejoin:bevel;stroke-miterlimit:4;stroke-dasharray:none;stroke-opacity:1" />
        <path
           transform="scale(0.26458333)"
           inkscape:connector-curvature="0"
           id="path1940"
           d="m 122.58946,-408.1898 c -0.13605,-0.22014 -1.18838,-1.09298 -2.3385,-1.93965 -6.46771,-4.76126 -15.45391,-4.61628 -20.746937,0.33473 -1.647018,1.54059 -1.752072,1.58498 -2.30497,0.97404 -3.319439,-3.66794 0.866092,-7.94884 9.061757,-9.26823 5.23533,-0.84282 12.07791,0.17984 15.45114,2.30927 1.87049,1.18079 3.18324,2.87628 3.18324,4.11134 0,1.80096 -1.72973,4.41049 -2.30573,3.4785 z"
           style="opacity:1;fill:#3e5489;fill-opacity:1;stroke:#3c5285;stroke-width:0.70710677;stroke-linejoin:bevel;stroke-miterlimit:4;stroke-dasharray:none;stroke-opacity:1" />
      </g>
      <g
         id="g1986">
        <ellipse
           style="opacity:1;fill:none;fill-opacity:1;stroke:#95a6cf;stroke-width:0.80338502;stroke-linejoin:bevel;stroke-miterlimit:4;stroke-dasharray:none;stroke-opacity:1"
           id="ellipse1944"
           cx="66.145836"
           cy="-90.895126"
           rx="4.1010418"
           ry="4.8788209" />
        <path
           inkscape:connector-curvature="0"
           id="path1946"
           d="m 64.766255,-86.782069 c -1.305742,-0.575132 -2.29617,-2.293055 -2.298647,-3.987059 -0.0019,-1.27735 0.236533,-2.082466 0.879687,-2.970897 1.889599,-2.610207 5.465953,-1.753661 6.34111,1.518715 0.60271,2.253648 -0.556165,4.886809 -2.43613,5.535301 -0.677749,0.233787 -1.839031,0.188916 -2.48602,-0.09606 z"
           style="opacity:1;fill:#3e5489;fill-opacity:1;stroke:#3c5285;stroke-width:0.29486015;stroke-linejoin:bevel;stroke-miterlimit:4;stroke-dasharray:none;stroke-opacity:1" />
        <ellipse
           ry="3.7822864"
           rx="2.6650779"
           cy="-90.771545"
           cx="65.202629"
           id="ellipse1948"
           style="opacity:1;fill:#788ec2;fill-opacity:1;stroke:none;stroke-width:0.63334787;stroke-linejoin:bevel;stroke-miterlimit:4;stroke-dasharray:none;stroke-opacity:1" />
      </g>
      <g
         id="g1981"
         transform="matrix(-1.0955894,-1.4027597,1.5044021,-1.3554733,225.17099,-176.48993)"
         inkscape:transform-center-x="-3.7392771"
         inkscape:transform-center-y="1.0689679">
        <path
           style="fill:none;stroke:#3c5285;stroke-width:0.26458332px;stroke-linecap:butt;stroke-linejoin:miter;stroke-opacity:1"
           d="m 26.005325,-107.85988 c 1.727695,-2.30863 5.334688,-1.5309 6.503421,0.26491"
           id="path1975"
           inkscape:connector-curvature="0"
           sodipodi:nodetypes="cc" />
        <ellipse
           style="opacity:1;fill:none;fill-opacity:1;stroke:#95a6cf;stroke-width:0.5291667;stroke-linejoin:bevel;stroke-miterlimit:4;stroke-dasharray:none;stroke-opacity:1"
           id="ellipse1977"
           cx="29.236458"
           cy="-108.87083"
           rx="4.1010418"
           ry="2.1166666" />
        <path
           style="opacity:1;fill:#3e5489;fill-opacity:1;stroke:#3c5285;stroke-width:0.70710677;stroke-linejoin:bevel;stroke-miterlimit:4;stroke-dasharray:none;stroke-opacity:1"
           d="m 122.58946,-408.1898 c -0.13605,-0.22014 -1.18838,-1.09298 -2.3385,-1.93965 -6.46771,-4.76126 -15.45391,-4.61628 -20.746937,0.33473 -1.647018,1.54059 -1.752072,1.58498 -2.30497,0.97404 -3.319439,-3.66794 0.866092,-7.94884 9.061757,-9.26823 5.23533,-0.84282 12.07791,0.17984 15.45114,2.30927 1.87049,1.18079 3.18324,2.87628 3.18324,4.11134 0,1.80096 -1.72973,4.41049 -2.30573,3.4785 z"
           id="path1979"
           inkscape:connector-curvature="0"
           transform="scale(0.26458333)" />
      </g>
      <g
         transform="rotate(100.53746,47.779945,-88.712875)"
         id="g1994">
        <ellipse
           ry="4.8788209"
           rx="4.1010418"
           cy="-90.895126"
           cx="66.145836"
           id="ellipse1988"
           style="opacity:1;fill:none;fill-opacity:1;stroke:#95a6cf;stroke-width:0.80338502;stroke-linejoin:bevel;stroke-miterlimit:4;stroke-dasharray:none;stroke-opacity:1" />
        <path
           style="opacity:1;fill:#3e5489;fill-opacity:1;stroke:#3c5285;stroke-width:0.29486015;stroke-linejoin:bevel;stroke-miterlimit:4;stroke-dasharray:none;stroke-opacity:1"
           d="m 64.766255,-86.782069 c -1.305742,-0.575132 -2.29617,-2.293055 -2.298647,-3.987059 -0.0019,-1.27735 0.236533,-2.082466 0.879687,-2.970897 1.889599,-2.610207 5.465953,-1.753661 6.34111,1.518715 0.60271,2.253648 -0.556165,4.886809 -2.43613,5.535301 -0.677749,0.233787 -1.839031,0.188916 -2.48602,-0.09606 z"
           id="path1990"
           inkscape:connector-curvature="0" />
        <ellipse
           style="opacity:1;fill:#788ec2;fill-opacity:1;stroke:none;stroke-width:0.63334787;stroke-linejoin:bevel;stroke-miterlimit:4;stroke-dasharray:none;stroke-opacity:1"
           id="ellipse1992"
           cx="65.202629"
           cy="-90.771545"
           rx="2.6650779"
           ry="3.7822864" />
      </g>
      <g
         transform="matrix(-0.7619202,0.14884447,-0.16347957,-0.83683582,68.148252,-169.13195)"
         id="g2002">
        <ellipse
           ry="4.8788209"
           rx="4.1010418"
           cy="-90.895126"
           cx="66.145836"
           id="ellipse1996"
           style="opacity:1;fill:none;fill-opacity:1;stroke:#95a6cf;stroke-width:0.80338502;stroke-linejoin:bevel;stroke-miterlimit:4;stroke-dasharray:none;stroke-opacity:1" />
        <path
           style="opacity:1;fill:#3e5489;fill-opacity:1;stroke:#3c5285;stroke-width:0.29486015;stroke-linejoin:bevel;stroke-miterlimit:4;stroke-dasharray:none;stroke-opacity:1"
           d="m 64.766255,-86.782069 c -1.305742,-0.575132 -2.29617,-2.293055 -2.298647,-3.987059 -0.0019,-1.27735 0.236533,-2.082466 0.879687,-2.970897 1.889599,-2.610207 5.465953,-1.753661 6.34111,1.518715 0.60271,2.253648 -0.556165,4.886809 -2.43613,5.535301 -0.677749,0.233787 -1.839031,0.188916 -2.48602,-0.09606 z"
           id="path1998"
           inkscape:connector-curvature="0" />
        <ellipse
           style="opacity:1;fill:#788ec2;fill-opacity:1;stroke:none;stroke-width:0.63334787;stroke-linejoin:bevel;stroke-miterlimit:4;stroke-dasharray:none;stroke-opacity:1"
           id="ellipse2000"
           cx="65.202629"
           cy="-90.771545"
           rx="2.6650779"
           ry="3.7822864" />
      </g>
      <g
         transform="rotate(163.71313,49.214595,-91.337477)"
         id="g2010">
        <ellipse
           ry="2.3556323"
           rx="2.396055"
           cy="-81.262291"
           cx="56.885422"
           id="ellipse2004"
           style="opacity:1;fill:none;fill-opacity:1;stroke:#95a6cf;stroke-width:0.42669868;stroke-linejoin:bevel;stroke-miterlimit:4;stroke-dasharray:none;stroke-opacity:1" />
        <path
           style="opacity:1;fill:#3e5489;fill-opacity:1;stroke:#3c5285;stroke-width:0.15660791;stroke-linejoin:bevel;stroke-miterlimit:4;stroke-dasharray:none;stroke-opacity:1"
           d="m 56.079393,-79.276387 c -0.762887,-0.27769 -1.34155,-1.107151 -1.342997,-1.925064 -0.0011,-0.616741 0.138195,-1.005474 0.513962,-1.434433 1.104008,-1.260282 3.193511,-0.846717 3.704826,0.733278 0.352137,1.088125 -0.324942,2.359489 -1.423321,2.672599 -0.395979,0.112879 -1.074464,0.09121 -1.45247,-0.04638 z"
           id="path2006"
           inkscape:connector-curvature="0" />
        <ellipse
           style="opacity:1;fill:#788ec2;fill-opacity:1;stroke:none;stroke-width:0.35468251;stroke-linejoin:bevel;stroke-miterlimit:4;stroke-dasharray:none;stroke-opacity:1"
           id="ellipse2008"
           cx="56.743095"
           cy="-81.594955"
           rx="1.8662541"
           ry="1.6939027" />
      </g>
      <g
         inkscape:transform-center-y="0.20513599"
         inkscape:transform-center-x="0.53830028"
         transform="rotate(-100.90007,35.199566,-92.155216)"
         id="g2026">
        <path
           sodipodi:nodetypes="cc"
           inkscape:connector-curvature="0"
           id="path2020"
           d="m 26.005325,-107.85988 c 1.727695,-2.30863 5.334688,-1.5309 6.503421,0.26491"
           style="fill:none;stroke:#3c5285;stroke-width:0.26458332px;stroke-linecap:butt;stroke-linejoin:miter;stroke-opacity:1" />
        <ellipse
           ry="2.1166666"
           rx="4.1010418"
           cy="-108.87083"
           cx="29.236458"
           id="ellipse2022"
           style="opacity:1;fill:none;fill-opacity:1;stroke:#95a6cf;stroke-width:0.5291667;stroke-linejoin:bevel;stroke-miterlimit:4;stroke-dasharray:none;stroke-opacity:1" />
        <path
           transform="scale(0.26458333)"
           inkscape:connector-curvature="0"
           id="path2024"
           d="m 122.58946,-408.1898 c -0.13605,-0.22014 -1.18838,-1.09298 -2.3385,-1.93965 -6.46771,-4.76126 -15.45391,-4.61628 -20.746937,0.33473 -1.647018,1.54059 -1.752072,1.58498 -2.30497,0.97404 -3.319439,-3.66794 0.866092,-7.94884 9.061757,-9.26823 5.23533,-0.84282 12.07791,0.17984 15.45114,2.30927 1.87049,1.18079 3.18324,2.87628 3.18324,4.11134 0,1.80096 -1.72973,4.41049 -2.30573,3.4785 z"
           style="opacity:1;fill:#3e5489;fill-opacity:1;stroke:#3c5285;stroke-width:0.70710677;stroke-linejoin:bevel;stroke-miterlimit:4;stroke-dasharray:none;stroke-opacity:1" />
      </g>
      <g
         id="g2034"
         transform="matrix(0.37977504,0,0,0.30239521,33.74372,-37.378173)">
        <path
           style="fill:none;stroke:#3c5285;stroke-width:0.48040769px;stroke-linecap:butt;stroke-linejoin:miter;stroke-opacity:1"
           d="m 90.511428,-80.983695 c 1.381128,5.201426 -3.837073,8.634187 -7.762305,7.698233"
           id="path2028"
           inkscape:connector-curvature="0"
           sodipodi:nodetypes="cc" />
        <ellipse
           transform="rotate(132.51043)"
           style="opacity:1;fill:none;fill-opacity:1;stroke:#95a6cf;stroke-width:0.96081549;stroke-linejoin:bevel;stroke-miterlimit:4;stroke-dasharray:none;stroke-opacity:1"
           id="ellipse2030"
           cx="-115.43283"
           cy="-13.983158"
           rx="6.8861041"
           ry="4.1559281" />
        <path
           style="opacity:1;fill:#3e5489;fill-opacity:1;stroke:#3c5285;stroke-width:0.33969954;stroke-linejoin:bevel;stroke-miterlimit:4;stroke-dasharray:none;stroke-opacity:1"
           d="m 83.419187,-72.83893 c 0.125144,0.03272 0.775303,-0.0055 1.444798,-0.08496 3.764911,-0.446763 6.407054,-3.440561 6.100058,-6.911951 -0.09553,-1.080182 -0.08099,-1.130169 0.31895,-1.096778 2.401117,0.200478 2.783968,3.073941 0.828879,6.221103 -1.248895,2.010384 -3.694664,3.892285 -5.522764,4.24949 -1.0137,0.198074 -2.057068,0.03282 -2.530028,-0.40073 -0.689669,-0.632196 -1.16971,-2.114699 -0.639893,-1.976174 z"
           id="path2032"
           inkscape:connector-curvature="0" />
      </g>
    </g>
  </g>
</svg>
