<?xml version="1.0" encoding="UTF-8" standalone="no"?>
<!-- Created with Inkscape (http://www.inkscape.org/) -->

<svg
   xmlns:dc="http://purl.org/dc/elements/1.1/"
   xmlns:cc="http://creativecommons.org/ns#"
   xmlns:rdf="http://www.w3.org/1999/02/22-rdf-syntax-ns#"
   xmlns:svg="http://www.w3.org/2000/svg"
   xmlns="http://www.w3.org/2000/svg"
   xmlns:sodipodi="http://sodipodi.sourceforge.net/DTD/sodipodi-0.dtd"
   xmlns:inkscape="http://www.inkscape.org/namespaces/inkscape"
   width="210mm"
   height="297mm"
   viewBox="0 0 210 297"
   version="1.1"
   id="svg5958"
   inkscape:version="0.92.2 (5c3e80d, 2017-08-06)"
   sodipodi:docname="rings.svg">
  <defs
     id="defs5952">
    <clipPath
       clipPathUnits="userSpaceOnUse"
       id="clipPath1100">
      <path
         style="opacity:1;fill:#e17f3d;fill-opacity:1;fill-rule:nonzero;stroke:#ffa964;stroke-width:0.26499999;stroke-linecap:butt;stroke-linejoin:miter;stroke-miterlimit:4;stroke-dasharray:none;stroke-dashoffset:0;stroke-opacity:1;paint-order:normal"
         d="M 119.35689,-52.440815 A 95.895475,59.266667 28.153046 0 0 6.84311,-45.43215 95.895475,59.266667 28.153046 0 0 63.429502,52.068889 95.895475,59.266667 28.153046 0 0 175.94329,45.060226 95.895475,59.266667 28.153046 0 0 119.35689,-52.440815 Z m -5.02936,49.3108678 A 30.747496,30.747496 0 0 1 129.39915,15.03586 l -59.043021,0.928477 a 30.747496,30.747496 0 0 1 29.172634,-22.6261133 30.747496,30.747496 0 0 1 14.798767,3.5318291 z"
         id="path1102"
         inkscape:connector-curvature="0" />
    </clipPath>
  </defs>
  <sodipodi:namedview
     id="base"
     pagecolor="#ffffff"
     bordercolor="#666666"
     borderopacity="1.0"
     inkscape:pageopacity="0.0"
     inkscape:pageshadow="2"
     inkscape:zoom="0.35"
     inkscape:cx="-64.285714"
     inkscape:cy="560"
     inkscape:document-units="mm"
     inkscape:current-layer="layer1"
     showgrid="false"
     inkscape:window-width="1440"
     inkscape:window-height="837"
     inkscape:window-x="-8"
     inkscape:window-y="-8"
     inkscape:window-maximized="1" />
  <metadata
     id="metadata5955">
    <rdf:RDF>
      <cc:Work
         rdf:about="">
        <dc:format>image/svg+xml</dc:format>
        <dc:type
           rdf:resource="http://purl.org/dc/dcmitype/StillImage" />
        <dc:title></dc:title>
      </cc:Work>
    </rdf:RDF>
  </metadata>
  <g
     inkscape:label="Layer 1"
     inkscape:groupmode="layer"
     id="layer1">
    <g
       id="g5804"
       transform="translate(-59.19546,50.948475)">
      <g
         transform="translate(-50.513942,-60.990906)"
         id="g4748">
        <circle
           style="opacity:1;fill:#a46648;fill-opacity:1;fill-rule:nonzero;stroke:#ffa964;stroke-width:0.26499999;stroke-linecap:butt;stroke-linejoin:miter;stroke-miterlimit:4;stroke-dasharray:none;stroke-dashoffset:0;stroke-opacity:1;paint-order:normal"
           id="path927"
           cx="174.08276"
           cy="53.289268"
           r="30.747498" />
        <ellipse
           cy="49.452812"
           cx="173.02443"
           id="circle956"
           style="opacity:1;fill:#d3715f;fill-opacity:1;fill-rule:nonzero;stroke:none;stroke-width:0.23701602;stroke-linecap:butt;stroke-linejoin:miter;stroke-miterlimit:4;stroke-dasharray:none;stroke-dashoffset:0;stroke-opacity:1;paint-order:normal"
           rx="28.379139"
           ry="26.394764" />
        <circle
           r="30.747498"
           cy="53.289268"
           cx="174.08276"
           id="circle3749"
           style="opacity:1;fill:#c06a44;fill-opacity:0.23618092;fill-rule:nonzero;stroke:#ffa964;stroke-width:0.26499999;stroke-linecap:butt;stroke-linejoin:miter;stroke-miterlimit:4;stroke-dasharray:none;stroke-dashoffset:0;stroke-opacity:1;paint-order:normal" />
        <path
           style="fill:#ffff00;fill-opacity:0.23618092;stroke-width:0.13229166"
           d="m 146.56468,40.013453 c 0,-0.160274 0.69952,-1.467089 1.41121,-2.636364 2.90434,-4.771708 7.35679,-8.884947 12.32363,-11.384759 1.86542,-0.938863 4.5547,-1.944796 5.97663,-2.235576 0.1819,-0.0372 0.47955,-0.105418 0.66146,-0.151598 0.1819,-0.04618 0.62717,-0.11471 0.98948,-0.152284 0.36232,-0.03757 0.68974,-0.109241 0.72761,-0.159266 0.0379,-0.05002 0.30697,-0.09528 0.59801,-0.100568 0.29104,-0.0053 1.42214,-0.0572 2.51354,-0.115345 3.79865,-0.202395 7.74158,0.391732 11.54932,1.740265 0.53129,0.188161 0.91825,0.383662 0.8599,0.434449 -0.0583,0.05079 -0.73117,0.255415 -1.49515,0.454729 -0.76398,0.199313 -2.72852,0.738679 -4.36562,1.198591 -8.66754,2.434966 -11.66293,3.004444 -15.14741,2.879807 -2.05841,-0.07363 -3.05036,0.117385 -4.63021,0.891612 -1.45598,0.71352 -2.162,1.281681 -5.06513,4.076104 -2.82604,2.720213 -4.00367,3.707024 -5.46217,4.577072 -1.07896,0.643639 -1.4451,0.816721 -1.4451,0.683131 z"
           id="path4583"
           inkscape:connector-curvature="0" />
        <path
           style="fill:#ffff00;fill-opacity:0.23618092;stroke-width:0.13229166"
           d="m 184.0337,25.173992 c -0.18881,-0.202131 -2.21878,-0.87109 -3.93307,-1.296114 -2.60627,-0.646173 -3.99297,-0.792824 -7.47448,-0.790459 -3.60018,0.0024 -3.39733,-0.148576 0.39688,-0.295481 2.63617,-0.102068 4.60229,0.05151 7.13843,0.557588 1.73071,0.345358 5.37899,1.468866 5.23554,1.612315 -0.046,0.04602 -0.33821,0.148299 -0.64932,0.227293 -0.42685,0.108382 -0.60206,0.104664 -0.71398,-0.01513 z"
           id="path4585"
           inkscape:connector-curvature="0" />
        <path
           style="fill:#ffff00;fill-opacity:0.23618092;stroke-width:0.13229166"
           d="m 147.70731,61.441329 c -0.79459,-1.44558 -1.64328,-3.524158 -2.13153,-5.220467 -0.25647,-0.891054 -0.46631,-1.693008 -0.46631,-1.78212 0,-0.228806 0.99712,-1.617049 2.25379,-3.137858 3.40921,-4.125775 9.24373,-8.543591 14.50048,-10.979557 4.62179,-2.141731 7.96651,-2.999184 17.24471,-4.420873 7.2973,-1.118158 8.29709,-1.367276 10.32686,-2.573139 0.8851,-0.52583 2.50581,-1.976199 2.93723,-2.628519 0.16736,-0.253058 0.25148,-0.283874 0.46418,-0.170042 0.31566,0.168936 1.90572,1.858804 2.94037,3.124941 0.80247,0.982009 2.24906,3.130621 2.24906,3.340513 0,0.1599 -1.20575,1.299773 -2.64583,2.501264 -2.43341,2.030249 -4.86754,3.400439 -6.87917,3.872328 -0.61846,0.145079 -2.25557,0.385728 -3.63802,0.534774 -4.98673,0.537628 -6.97804,0.875069 -9.08278,1.539134 -1.31822,0.415909 -3.13618,1.307055 -3.97925,1.950582 -0.33525,0.255902 -1.67086,1.528212 -2.96803,2.827356 -4.01049,4.016603 -6.32115,5.383414 -12.14807,7.185869 -1.23693,0.382622 -2.75346,0.906656 -3.37007,1.164519 -1.47208,0.615619 -3.17395,1.767122 -4.21463,2.851673 -0.4608,0.480224 -0.85717,0.873133 -0.88083,0.873133 -0.0237,0 -0.25413,-0.384079 -0.51216,-0.853511 z"
           id="path4587"
           inkscape:connector-curvature="0" />
        <path
           style="fill:#ffff00;fill-opacity:0.23618092;stroke-width:0.13229166"
           d="m 145.935,65.298575 c -0.0777,-0.233224 -0.35938,-1.01936 -0.62595,-1.746964 -0.57995,-1.583018 -1.18335,-3.941752 -1.40567,-5.494824 l -0.16164,-1.129202 0.55959,-1.119756 c 0.30777,-0.615868 0.60955,-1.170358 0.67063,-1.232202 0.0611,-0.06185 0.20805,0.23581 0.32661,0.661458 0.67613,2.427378 1.71729,5.068848 2.54724,6.462443 l 0.39392,0.661458 -0.51035,0.678188 c -0.28069,0.373002 -0.76747,1.129369 -1.08173,1.680816 l -0.57137,1.002633 z"
           id="path4589"
           inkscape:connector-curvature="0" />
        <path
           style="fill:#ffcc00;fill-opacity:0.23618092;stroke-width:0.13229166"
           d="m 197.20139,35.64732 c -0.95754,-1.460757 -3.05516,-3.982839 -3.98596,-4.792533 l -0.57177,-0.497385 0.25692,-0.435446 c 0.1413,-0.239496 0.31086,-0.435449 0.37678,-0.435449 0.0659,0 1.03313,0.907852 2.14934,2.017448 1.93507,1.923606 3.65779,3.97895 3.65779,4.36404 0,0.09867 -0.22325,0.395182 -0.4961,0.658916 l -0.49609,0.479515 z"
           id="path4591"
           inkscape:connector-curvature="0" />
        <path
           style="fill:#ffcc00;fill-opacity:0.23618092;stroke-width:0.13229166"
           d="m 147.70313,61.451142 c -1.04232,-1.863828 -1.95425,-4.177022 -2.34253,-5.942002 l -0.25593,-1.163306 0.42166,-0.622631 c 2.54425,-3.756933 7.03407,-7.896259 11.84096,-10.916608 1.82784,-1.148495 6.02996,-3.217875 7.91667,-3.898646 3.05097,-1.100867 7.10122,-1.957816 15.1474,-3.204876 3.82597,-0.592982 5.66065,-0.943288 6.68073,-1.275596 1.70599,-0.55575 3.49971,-1.728269 4.73912,-3.097861 0.3906,-0.431625 0.80416,-0.784775 0.91902,-0.784775 0.20876,0 2.05866,1.928664 3.17859,3.31394 0.68862,0.851773 2.07733,2.950422 2.07733,3.139305 0,0.127765 -1.51192,1.528726 -2.91041,2.696814 -1.89458,1.582438 -4.53956,3.083044 -6.24673,3.544024 -0.99841,0.269595 -2.63699,0.509699 -5.92411,0.868064 -4.70286,0.512715 -7.1303,1.105752 -9.53249,2.328852 -1.13148,0.576109 -3.16751,2.085078 -3.16751,2.347552 0,0.194525 -4.0417,3.909775 -5.15938,4.742651 -1.83342,1.366243 -4.33476,2.522789 -8.24888,3.814051 -4.572,1.508297 -5.66543,2.079554 -7.64352,3.993348 l -1.00958,0.97676 z"
           id="path4593"
           inkscape:connector-curvature="0" />
        <path
           style="fill:#ffcc00;fill-opacity:0.23618092;stroke:none;stroke-width:0.13229166"
           d="m 146.56689,39.977837 c 0.004,-0.194149 1.17441,-2.293358 1.89065,-3.391085 2.25449,-3.455324 5.88892,-7.012252 9.45554,-9.253919 2.0786,-1.306427 5.88846,-3.024587 7.41056,-3.341991 0.19646,-0.04097 0.42989,-0.08948 0.51873,-0.107802 0.0888,-0.01834 0.19885,-0.07062 0.24444,-0.116226 0.0456,-0.0456 0.16037,-0.05319 0.25504,-0.01685 0.0947,0.03633 0.21202,0.0016 0.26079,-0.07742 0.0488,-0.07891 0.13819,-0.112861 0.19872,-0.07545 0.0605,0.03741 0.57731,-0.01847 1.14841,-0.124151 4.32679,-0.800748 9.27484,-0.519557 13.7804,0.783119 1.35689,0.392314 2.9279,0.986018 2.63082,0.994217 -0.0579,0.0016 -2.36618,0.627584 -5.1295,1.391076 -9.83226,2.716615 -11.07656,2.966583 -15.46888,3.107568 -3.40791,0.109387 -3.87806,0.196776 -5.42397,1.008169 -1.29736,0.680939 -2.0966,1.336281 -5.0428,4.134847 -1.48295,1.408634 -3.20228,2.941815 -3.82074,3.407071 -1.12714,0.847921 -2.91236,1.878481 -2.90821,1.678837 z"
           id="path4595"
           inkscape:connector-curvature="0" />
        <path
           style="fill:#ffe680;fill-opacity:0.23618092;stroke-width:0.13229166"
           d="m 172.03084,83.790975 c -0.14552,-0.0279 -0.67498,-0.0893 -1.17656,-0.13652 l -0.91198,-0.0858 1.10613,-0.591017 c 1.30237,-0.695867 1.82159,-1.060049 4.0644,-2.850741 2.0665,-1.649931 3.1408,-2.353119 4.70474,-3.07953 3.44987,-1.602367 7.97353,-2.606355 14.94509,-3.316928 1.15188,-0.117403 2.12078,-0.187005 2.15312,-0.154667 0.11387,0.113874 -3.10938,3.110076 -4.34418,4.038171 -2.34724,1.764223 -5.204,3.340912 -7.84076,4.327422 -1.62091,0.606446 -4.31055,1.297093 -6.15945,1.58162 -1.27008,0.19546 -5.9243,0.386147 -6.54055,0.26798 z"
           id="path4597"
           inkscape:connector-curvature="0" />
        <path
           style="fill:#ffd42a;fill-opacity:0.23618092;stroke:none;stroke-width:0.13229166"
           d="m 171.69622,83.810855 c -0.0528,-0.0524 -0.88568,-0.16396 -1.58361,-0.21211 -0.10914,-0.008 0.30758,-0.27843 0.92604,-0.602007 1.09402,-0.572387 2.07782,-1.270961 4.85134,-3.444826 3.11528,-2.441736 6.0096,-3.662836 11.08981,-4.678748 2.9184,-0.583608 9.75493,-1.478423 9.93322,-1.300136 0.0459,0.04588 -1.06569,1.178454 -2.52691,2.574686 -1.48028,1.414431 -4.34432,3.364032 -6.61256,4.501277 -1.77909,0.891998 -4.64596,1.96624 -5.88698,2.205907 -0.64915,0.12537 -0.92854,0.19566 -1.03211,0.25967 -0.15258,0.0943 -2.40956,0.475337 -3.22897,0.545137 -1.14772,0.0978 -5.86198,0.217937 -5.92927,0.15115 z"
           id="path4599"
           inkscape:connector-curvature="0" />
        <path
           style="fill:#a02c2c;fill-opacity:0.23618092;stroke-width:0.13229166"
           d="m 144.93342,53.404388 c -0.1888,-0.759397 -0.37159,-4.002789 -0.29298,-5.19861 0.10547,-1.60438 0.39254,-3.495117 0.73181,-4.819962 0.13852,-0.540925 0.22499,-1.026975 0.19215,-1.080106 -0.0328,-0.05313 -0.002,-0.11657 0.0696,-0.140975 0.0711,-0.02439 0.15272,-0.163436 0.18136,-0.308957 0.16831,-0.855149 0.38747,-1.138327 1.19418,-1.543053 2.18233,-1.094872 3.48617,-2.128819 7.17505,-5.689854 4.26726,-4.119377 5.32884,-4.583956 10.23949,-4.481126 2.7336,0.05724 5.95169,-0.612497 14.48594,-3.014779 1.52797,-0.430101 3.53313,-0.975981 4.45592,-1.213066 l 1.6778,-0.431062 1.23262,0.602006 c 1.54228,0.753245 3.25401,1.823934 4.83627,3.025098 1.39534,1.059267 1.38117,0.953196 0.2872,2.150171 -0.8458,0.925443 -2.52671,2.055124 -3.82685,2.571895 -1.30655,0.519319 -2.70846,0.808027 -7.47234,1.538838 -6.70655,1.028832 -8.49201,1.353606 -11.31094,2.057448 -5.5165,1.377381 -11.13958,4.249904 -16.20574,8.278619 -1.96079,1.559266 -5.20086,4.830646 -6.47121,6.533761 -0.56986,0.763984 -1.05133,1.406718 -1.06995,1.428297 -0.0186,0.02156 -0.0678,-0.09749 -0.10937,-0.264583 z"
           id="path4601"
           inkscape:connector-curvature="0" />
        <path
           style="fill:#a02c2c;fill-opacity:0.23618092;stroke-width:0.13229166"
           d="m 161.71208,73.687224 c -1.75717,-0.732774 -3.74424,-1.784987 -5.19749,-2.752222 -1.77939,-1.184309 -1.723,-1.108427 -1.26782,-1.706147 1.14764,-1.507008 3.96507,-3.525745 8.11896,-5.817375 5.96204,-3.289152 8.31374,-5.033031 12.1972,-9.044678 2.52738,-2.610813 3.41336,-3.267157 5.16962,-3.829738 1.94882,-0.624263 2.9977,-0.716074 8.36392,-0.732107 4.29379,-0.01283 4.99907,-0.04403 5.74411,-0.254114 2.09285,-0.590132 4.20107,-2.150856 5.71021,-4.227304 0.20026,-0.275542 0.39238,-0.454136 0.42692,-0.396875 0.12574,0.208458 0.34645,1.99263 0.43019,3.477551 0.15087,2.675351 -0.30156,5.933641 -1.20889,8.706059 -0.53056,1.621192 -0.47011,1.54708 -3.8265,4.691409 -4.26877,3.999064 -7.46607,6.250263 -9.25883,6.519106 -0.30666,0.04599 -1.83145,-0.04625 -3.38843,-0.204967 -5.52172,-0.56288 -9.10937,-0.501407 -12.03153,0.206158 -3.22722,0.781428 -6.09977,2.612541 -7.73268,4.929214 -0.3638,0.516138 -0.75076,0.937109 -0.8599,0.93549 -0.10914,-0.0016 -0.73421,-0.226375 -1.38906,-0.49946 z m 20.63751,-12.111291 c 6.18045,-0.894943 9.46245,-2.804104 9.51099,-5.53262 0.0131,-0.738383 -0.0137,-0.811033 -0.42677,-1.156388 -1.31464,-1.099068 -4.99642,-1.06439 -8.43653,0.07946 -3.91537,1.301885 -6.29884,3.606885 -6.0981,5.897332 0.0362,0.413433 0.11066,0.824154 0.1654,0.912715 0.12558,0.203195 3.33901,0.08128 5.28501,-0.200504 z"
           id="path4603"
           inkscape:connector-curvature="0" />
        <path
           style="fill:#a02c2c;fill-opacity:0.23618092;stroke-width:0.13229166"
           d="m 159.30192,80.026794 c -2.18952,-1.193585 -4.34034,-2.771949 -6.23041,-4.572132 l -1.2669,-1.206656 0.44208,-0.784135 c 0.71842,-1.274313 1.89862,-2.961029 2.84036,-4.059404 0.82845,-0.96624 2.89796,-2.810018 3.53932,-3.153259 0.16,-0.08564 0.41007,-0.266708 0.55571,-0.402387 0.14563,-0.135678 0.31707,-0.246689 0.38096,-0.246689 0.0639,0 0.30568,-0.140954 0.5373,-0.313235 0.23161,-0.172281 1.79034,-1.071486 3.46383,-1.998239 5.64979,-3.128759 8.16216,-4.972688 11.64167,-8.544256 1.87153,-1.921044 2.74269,-2.777482 3.12928,-3.076374 0.60379,-0.466833 2.18326,-1.142333 3.28794,-1.406181 1.50424,-0.359277 2.58417,-0.421968 7.93643,-0.460721 5.03803,-0.03648 5.19438,-0.05729 6.94531,-0.924584 2.0494,-1.015135 4.08145,-3.193561 5.53527,-5.933974 l 0.46803,-0.882224 0.25828,0.690467 c 1.04381,2.79042 1.87641,7.094884 1.87345,9.685491 l -10e-4,0.794559 -1.07646,1.190625 c -4.61494,5.104408 -9.08697,9.370928 -12.34933,11.781822 -1.31615,0.972645 -3.28114,1.992767 -4.06492,2.110303 -0.3414,0.05119 -1.79069,-0.03339 -3.42296,-0.199789 -8.29744,-0.845836 -12.7866,-0.28616 -16.39788,2.044369 -1.69202,1.091941 -2.48953,1.871483 -3.93103,3.842462 -0.32158,0.439692 -0.91316,1.723551 -1.56013,3.385828 -0.72341,1.858674 -1.34359,3.164498 -1.50114,3.160749 -0.043,-0.0011 -0.50792,-0.236119 -1.03314,-0.522436 z m 23.11382,-18.46609 c 6.23418,-0.940533 9.39628,-2.787732 9.44484,-5.517391 0.0131,-0.738383 -0.0137,-0.811033 -0.42677,-1.156388 -0.6498,-0.54325 -1.71884,-0.794168 -3.38358,-0.794168 -4.64654,0 -9.90652,2.517061 -10.91994,5.225521 -0.22711,0.60698 -0.28149,0.970624 -0.23111,1.545444 0.0362,0.413433 0.11066,0.824154 0.1654,0.912715 0.13007,0.21046 3.39999,0.07863 5.35116,-0.215733 z"
           id="path4605"
           inkscape:connector-curvature="0" />
        <path
           style="fill:#a02c2c;fill-opacity:0.23618092;stroke:none;stroke-width:0.13229166"
           d="m 143.60695,55.469585 c -0.25312,-1.84668 0.019,-5.799558 0.58844,-8.547475 0.4466,-2.155198 1.8348,-6.24522 2.13868,-6.301134 0.23512,-0.04326 1.55742,-0.76267 2.41342,-1.313048 1.30105,-0.836517 1.99454,-1.420942 4.0349,-3.400301 2.93951,-2.851637 3.962,-3.752283 4.98086,-4.387307 1.50106,-0.93557 3.30112,-1.466702 4.80873,-1.418876 2.27904,0.0723 3.26793,0.05327 4.23333,-0.08147 2.67258,-0.372996 5.6637,-1.085927 11.86268,-2.827456 2.1704,-0.609749 4.76203,-1.304063 5.75917,-1.542923 l 1.81298,-0.434287 1.49431,0.73429 c 0.82187,0.40386 2.23069,1.230934 3.13071,1.837944 0.90003,0.607007 1.74357,1.160362 1.87455,1.229672 0.21573,0.114162 0.17466,0.217839 -0.43634,1.101696 -1.17655,1.701937 -2.91719,3.050648 -4.89576,3.793405 -1.13937,0.427723 -3.30157,0.86074 -7.30698,1.463344 -10.49502,1.578952 -13.74972,2.402697 -18.53695,4.691592 -7.45273,3.563337 -14.37037,9.569527 -17.35331,15.066878 l -0.51844,0.95546 z"
           id="path4607"
           inkscape:connector-curvature="0" />
        <path
           style="fill:#aa4400;fill-opacity:0.23618092;stroke-width:0.13229166"
           d="m 159.13239,79.919506 c -2.23492,-1.254083 -5.06612,-3.391588 -6.65902,-5.027427 l -0.63974,-0.656995 0.29174,-0.571865 c 0.47453,-0.930146 1.61269,-2.631763 2.4718,-3.695462 1.07673,-1.333151 3.02747,-3.14806 3.7543,-3.492871 0.13847,-0.06569 0.25176,-0.16987 0.25176,-0.23151 0,-0.06164 0.062,-0.112077 0.13782,-0.112077 0.0758,0 0.26562,-0.119063 0.42182,-0.264584 0.1562,-0.145521 0.36207,-0.264583 0.45749,-0.264583 0.0954,0 0.17349,-0.05259 0.17349,-0.116861 0,-0.06427 0.10418,-0.152879 0.23151,-0.196898 0.12733,-0.04402 0.41011,-0.19594 0.62839,-0.337603 0.21828,-0.141663 1.43867,-0.836499 2.71198,-1.544076 5.97045,-3.31778 8.21615,-4.985139 12.39377,-9.201963 2.5878,-2.612091 2.64909,-2.665386 3.54738,-3.084756 2.50278,-1.168415 3.27349,-1.266269 10.31875,-1.310097 4.46151,-0.02776 4.50625,-0.03078 5.52689,-0.373221 2.69085,-0.902825 5.13969,-3.199924 6.79291,-6.371982 l 0.54584,-1.047311 0.28993,0.774909 c 1.01612,2.715819 1.85954,7.149955 1.85954,9.77623 v 0.678752 l -1.54607,1.712595 c -0.85034,0.941927 -2.94882,3.112857 -4.66328,4.824288 -5.09156,5.082545 -8.48553,7.71835 -10.85628,8.431164 -0.55789,0.167741 -2.54881,0.0726 -5.55625,-0.265528 -2.2281,-0.250502 -7.48204,-0.204133 -8.99583,0.0794 -3.7147,0.695753 -7.06606,2.555578 -8.79083,4.878437 -0.33915,0.456753 -0.68841,0.919758 -0.77615,1.028899 -0.28297,0.352036 -1.12405,2.173547 -1.74252,3.773757 -0.59514,1.539841 -1.22662,2.841112 -1.37846,2.840524 -0.043,-1.66e-4 -0.58421,-0.284241 -1.20268,-0.631282 z m 22.02739,-18.22227 c 7.0183,-0.819538 10.65346,-2.758606 10.69605,-5.705504 0.012,-0.832487 -0.18167,-1.088347 -1.14822,-1.516599 -0.55004,-0.243708 -0.98502,-0.313852 -2.20646,-0.355817 -4.92983,-0.169368 -10.57325,2.509155 -11.44067,5.430054 -0.23803,0.801537 -0.25422,1.362665 -0.0558,1.93198 l 0.14523,0.416615 h 1.14543 c 0.62998,0 1.91896,-0.09033 2.8644,-0.200729 z"
           id="path4613"
           inkscape:connector-curvature="0" />
        <path
           style="fill:#aa4400;fill-opacity:0.23618092;stroke-width:0.13229166"
           d="m 169.00948,83.504905 c -0.0317,-0.0316 -0.73402,-0.209167 -1.56081,-0.394487 -2.67832,-0.600297 -7.13232,-2.243778 -6.73924,-2.486713 0.21447,-0.132551 0.75802,-1.250156 1.28205,-2.636028 0.75727,-2.002766 1.66049,-3.801004 1.83601,-3.655343 0.0844,0.07001 0.71446,0.276278 1.40023,0.458377 4.28928,1.138979 9.18937,1.304158 13.57594,0.457637 8.60466,-1.660528 15.86467,-6.931657 19.75043,-14.339797 0.59959,-1.143109 0.95213,-1.595816 2.62887,-3.375782 1.06503,-1.130599 2.27873,-2.430044 2.6971,-2.887655 l 0.76068,-0.832022 v 0.570593 c 0,0.911995 -0.3712,3.833738 -0.67066,5.278877 -0.92065,4.442862 -3.01918,8.888322 -5.96578,12.63773 l -0.63749,0.811183 -1.02632,0.08937 c -5.75072,0.500764 -10.60214,1.351341 -13.88679,2.434709 -3.11875,1.02865 -4.84526,1.988283 -7.64473,4.249108 -0.87313,0.705128 -1.8936,1.501675 -2.26771,1.770105 -0.73767,0.529291 -3.43803,1.943888 -3.53178,1.850138 z"
           id="path4615"
           inkscape:connector-curvature="0" />
        <path
           style="fill:#aa4400;fill-opacity:0.23618092;stroke-width:0.13229166"
           d="m 169.78188,75.633076 c -2.19131,-0.220625 -5.87791,-1.074044 -5.98145,-1.384655 -0.079,-0.237101 1.36546,-1.968571 2.26546,-2.715545 2.19965,-1.825636 4.81412,-2.884967 8.08161,-3.274513 1.68039,-0.200332 5.09011,-0.176778 7.48631,0.05171 5.31034,0.50637 5.09211,0.496425 5.97502,0.272307 1.99043,-0.505254 5.11413,-2.796982 9.5905,-7.036152 1.03684,-0.981898 1.88516,-1.735643 1.88516,-1.674993 0,0.165839 -1.41053,2.636264 -2.0241,3.545044 -2.66538,3.947776 -6.46387,7.206972 -10.93699,9.384212 -4.92992,2.399578 -10.70307,3.400275 -16.34152,2.832582 z"
           id="path4617"
           inkscape:connector-curvature="0" />
        <path
           style="fill:#aa0000;fill-opacity:0.23618092;stroke:none;stroke-width:0.13229166"
           d="m 177.15974,61.69008 c -0.14478,-0.144772 -0.20789,-0.459669 -0.20789,-1.037204 0,-2.45858 2.79542,-4.796509 7.11513,-5.950685 3.09733,-0.827569 5.98942,-0.752221 7.3134,0.190542 0.35504,0.252809 0.38814,0.343651 0.38814,1.065366 0,1.363715 -0.5618,2.282163 -1.96765,3.21677 -1.98335,1.31853 -5.49539,2.253033 -9.7263,2.588027 -2.28881,0.181221 -2.67032,0.171691 -2.91483,-0.07282 z"
           id="path4621"
           inkscape:connector-curvature="0" />
        <path
           style="fill:#550000;fill-opacity:0.23618092;stroke:none;stroke-width:0.13229166"
           d="m 177.02455,61.776284 c -0.16951,-0.27427 -0.25657,-1.730402 -0.10346,-1.730402 0.0761,0 0.10715,-0.119062 0.0691,-0.264583 -0.038,-0.145521 -0.005,-0.264583 0.0744,-0.264583 0.0796,0 0.10591,-0.09815 0.0591,-0.220139 -0.0564,-0.147016 -0.0336,-0.188677 0.0688,-0.12542 0.0966,0.05968 0.12696,0.02619 0.0822,-0.09054 -0.1077,-0.280657 0.91307,-1.484609 1.83485,-2.16413 2.52019,-1.857838 5.98245,-2.895804 9.35018,-2.803134 1.49829,0.04123 1.72743,0.081 2.41666,0.419447 0.93057,0.456959 1.07735,0.705442 0.98943,1.675048 -0.23779,2.622304 -3.12096,4.341452 -8.89461,5.303583 -1.98238,0.330348 -5.80097,0.500422 -5.94657,0.264851 z"
           id="path4623"
           inkscape:connector-curvature="0" />
      </g>
      <g
         clip-path="url(#clipPath1100)"
         transform="rotate(-28.153046,47.861371,-38.671277)"
         id="g1053">
        <path
           inkscape:connector-curvature="0"
           style="opacity:1;fill:#c06a44;fill-opacity:1;fill-rule:nonzero;stroke:#ffa964;stroke-width:1.00157475;stroke-linecap:butt;stroke-linejoin:miter;stroke-miterlimit:4;stroke-dasharray:none;stroke-dashoffset:0;stroke-opacity:1;paint-order:normal"
           d="m 378,24.519531 a 255,66.499999 0 0 0 -255,66.5 255,66.499999 0 0 0 255,66.499999 255,66.499999 0 0 0 255,-66.499999 255,66.499999 0 0 0 -255,-66.5 z m 0,4.619141 A 237.28442,61.880032 0 0 1 615.28516,91.019531 237.28442,61.880032 0 0 1 378,152.90039 237.28442,61.880032 0 0 1 140.71484,91.019531 237.28442,61.880032 0 0 1 378,29.138672 Z"
           transform="scale(0.26458333)"
           id="path1033" />
        <path
           id="path1040"
           d="M 100.0125,7.313826 A 64.299969,16.768423 0 0 0 35.712529,24.082251 64.299969,16.768423 0 0 0 100.0125,40.850674 64.299969,16.768423 0 0 0 164.31252,24.082251 64.299969,16.768423 0 0 0 100.0125,7.313826 Z m 0,1.1647481 A 59.832874,15.603465 0 0 1 159.84556,24.082251 59.832874,15.603465 0 0 1 100.0125,39.685923 59.832874,15.603465 0 0 1 40.179441,24.082251 59.832874,15.603465 0 0 1 100.0125,8.4785741 Z"
           style="opacity:1;fill:#e17f3d;fill-opacity:1;fill-rule:nonzero;stroke:#ffa964;stroke-width:0.25255382;stroke-linecap:butt;stroke-linejoin:miter;stroke-miterlimit:4;stroke-dasharray:none;stroke-dashoffset:0;stroke-opacity:1;paint-order:normal"
           inkscape:connector-curvature="0" />
        <path
           inkscape:connector-curvature="0"
           style="opacity:1;fill:#e1ae3d;fill-opacity:1;fill-rule:nonzero;stroke:#ffa964;stroke-width:0.24114484;stroke-linecap:butt;stroke-linejoin:miter;stroke-miterlimit:4;stroke-dasharray:none;stroke-dashoffset:0;stroke-opacity:1;paint-order:normal"
           d="M 100.0125,8.0713289 A 61.395254,16.010919 0 0 0 38.617244,24.082251 61.395254,16.010919 0 0 0 100.0125,40.09317 61.395254,16.010919 0 0 0 161.40786,24.082251 61.395254,16.010919 0 0 0 100.0125,8.0713289 Z m 0,1.1121317 A 57.129965,14.898585 0 0 1 157.14264,24.082251 57.129965,14.898585 0 0 1 100.0125,38.981032 57.129965,14.898585 0 0 1 42.882361,24.082251 57.129965,14.898585 0 0 1 100.0125,9.1834606 Z"
           id="path1042" />
        <path
           id="path1044"
           d="M 100.0125,9.2420149 A 56.906163,14.840231 0 0 0 43.10635,24.082251 56.906163,14.840231 0 0 0 100.0125,38.922482 56.906163,14.840231 0 0 0 156.91884,24.082251 56.906163,14.840231 0 0 0 100.0125,9.2420149 Z m 0,1.0308151 A 52.952743,13.809225 0 0 1 152.9654,24.082251 52.952743,13.809225 0 0 1 100.0125,37.891667 52.952743,13.809225 0 0 1 47.059602,24.082251 52.952743,13.809225 0 0 1 100.0125,10.27283 Z"
           style="opacity:1;fill:#c06a44;fill-opacity:1;fill-rule:nonzero;stroke:#ffa964;stroke-width:0.22351277;stroke-linecap:butt;stroke-linejoin:miter;stroke-miterlimit:4;stroke-dasharray:none;stroke-dashoffset:0;stroke-opacity:1;paint-order:normal"
           inkscape:connector-curvature="0" />
        <path
           id="path1046"
           d="M 100.0125,10.274973 A 52.945204,13.807271 0 0 0 47.067324,24.082251 52.945204,13.807271 0 0 0 100.0125,37.889522 52.945204,13.807271 0 0 0 152.95794,24.082251 52.945204,13.807271 0 0 0 100.0125,10.274973 Z m 0,0.959057 A 49.266957,12.848025 0 0 1 149.2796,24.082251 49.266957,12.848025 0 0 1 100.0125,36.930466 49.266957,12.848025 0 0 1 50.745401,24.082251 49.266957,12.848025 0 0 1 100.0125,11.23403 Z"
           style="opacity:1;fill:#e17f3d;fill-opacity:1;fill-rule:nonzero;stroke:#ffa964;stroke-width:0.20795506;stroke-linecap:butt;stroke-linejoin:miter;stroke-miterlimit:4;stroke-dasharray:none;stroke-dashoffset:0;stroke-opacity:1;paint-order:normal"
           inkscape:connector-curvature="0" />
      </g>
    </g>
  </g>
</svg>
