<?xml version="1.0" encoding="UTF-8" standalone="no"?>
<!-- Created with Inkscape (http://www.inkscape.org/) -->

<svg
   xmlns:dc="http://purl.org/dc/elements/1.1/"
   xmlns:cc="http://creativecommons.org/ns#"
   xmlns:rdf="http://www.w3.org/1999/02/22-rdf-syntax-ns#"
   xmlns:svg="http://www.w3.org/2000/svg"
   xmlns="http://www.w3.org/2000/svg"
   xmlns:sodipodi="http://sodipodi.sourceforge.net/DTD/sodipodi-0.dtd"
   xmlns:inkscape="http://www.inkscape.org/namespaces/inkscape"
   width="452.62558"
   height="1124.9242"
   viewBox="0 0 119.75718 297.6362"
   version="1.1"
   id="svg2665"
   inkscape:version="0.92.2 (5c3e80d, 2017-08-06)"
   sodipodi:docname="rocket.svg">
  <defs
     id="defs2659" />
  <sodipodi:namedview
     id="base"
     pagecolor="#ffffff"
     bordercolor="#666666"
     borderopacity="1.0"
     inkscape:pageopacity="0.0"
     inkscape:pageshadow="2"
     inkscape:zoom="0.35"
     inkscape:cx="-713.68724"
     inkscape:cy="556.74784"
     inkscape:document-units="mm"
     inkscape:current-layer="layer1"
     showgrid="false"
     inkscape:window-width="1440"
     inkscape:window-height="837"
     inkscape:window-x="-8"
     inkscape:window-y="-8"
     inkscape:window-maximized="1"
     units="px"
     fit-margin-top="10"
     fit-margin-left="10"
     fit-margin-right="10"
     fit-margin-bottom="10" />
  <metadata
     id="metadata2662">
    <rdf:RDF>
      <cc:Work
         rdf:about="">
        <dc:format>image/svg+xml</dc:format>
        <dc:type
           rdf:resource="http://purl.org/dc/dcmitype/StillImage" />
        <dc:title></dc:title>
      </cc:Work>
    </rdf:RDF>
  </metadata>
  <g
     inkscape:label="Layer 1"
     inkscape:groupmode="layer"
     id="layer1"
     transform="translate(-48.978558,1.4966646)">
    <g
       transform="matrix(2.6002856,0,0,2.6002856,-169.88045,324.22033)"
       id="g5213">
      <path
         id="path5090"
         d="m 91.74413,-57.871095 a 6.4586669,14.978075 0 0 0 -6.45867,14.978076 6.4586669,14.978075 0 0 0 3.57958,13.387968 h 5.77069 a 6.4586669,14.978075 0 0 0 3.56707,-13.387968 6.4586669,14.978075 0 0 0 -6.45867,-14.978076 z"
         style="opacity:1;fill:#d7d7d7;fill-opacity:1;fill-rule:nonzero;stroke:#808080;stroke-width:0.20129521;stroke-linecap:round;stroke-linejoin:round;stroke-miterlimit:4;stroke-dasharray:none;stroke-dashoffset:0;stroke-opacity:1;paint-order:normal"
         inkscape:connector-curvature="0" />
      <path
         inkscape:connector-curvature="0"
         style="opacity:1;fill:#d7d7d7;fill-opacity:1;fill-rule:nonzero;stroke:#808080;stroke-width:0.20129521;stroke-linecap:round;stroke-linejoin:round;stroke-miterlimit:4;stroke-dasharray:none;stroke-dashoffset:0;stroke-opacity:1;paint-order:normal"
         d="m 122.64586,-57.871095 a 6.4586669,14.978075 0 0 0 -6.45867,14.978076 6.4586669,14.978075 0 0 0 3.57958,13.387968 h 5.77069 a 6.4586669,14.978075 0 0 0 3.56707,-13.387968 6.4586669,14.978075 0 0 0 -6.45867,-14.978076 z"
         id="path5088" />
      <path
         inkscape:connector-curvature="0"
         id="path5076"
         d="m 107.22806,-114.95629 a 15.742708,42.465624 0 0 0 -15.742697,42.465625 15.742708,42.465624 0 0 0 8.725037,37.957373 h 14.06581 a 15.742708,42.465624 0 0 0 8.69456,-37.957373 15.742708,42.465624 0 0 0 -15.74271,-42.465625 z"
         style="opacity:1;fill:#ff0000;fill-opacity:1;fill-rule:nonzero;stroke:#808080;stroke-width:0.52916664;stroke-linecap:round;stroke-linejoin:round;stroke-miterlimit:4;stroke-dasharray:none;stroke-dashoffset:0;stroke-opacity:1;paint-order:normal" />
      <path
         inkscape:connector-curvature="0"
         id="path5144"
         d="m 107.195,-115.14338 a 15.350854,42.465624 0 0 0 -15.350856,42.465625 15.350854,42.465624 0 0 0 8.507876,37.957374 h 6.84298 z"
         style="opacity:1;fill:#ff5d5d;fill-opacity:1;fill-rule:nonzero;stroke:none;stroke-width:0.52253944;stroke-linecap:round;stroke-linejoin:round;stroke-miterlimit:4;stroke-dasharray:none;stroke-dashoffset:0;stroke-opacity:1;paint-order:normal" />
      <path
         sodipodi:nodetypes="ccccc"
         inkscape:connector-curvature="0"
         id="path5078"
         d="m 98.250151,-117.45703 c 2.764149,1.45791 5.024429,2.01193 7.761269,2.04275 2.59475,-0.0412 5.80248,-0.61745 7.98858,-2.22553 -2.86486,-4.88199 -5.36068,-9.13104 -7.97461,-13.58288 -2.58176,4.73935 -5.11763,8.98699 -7.775239,13.76566 z"
         inkscape:transform-center-y="-2.7524385"
         inkscape:transform-center-x="-0.042022493"
         style="opacity:1;fill:#e6e6e6;fill-opacity:1;fill-rule:nonzero;stroke:#808080;stroke-width:0.52916664;stroke-linecap:round;stroke-linejoin:round;stroke-miterlimit:4;stroke-dasharray:none;stroke-dashoffset:0;stroke-opacity:1;paint-order:normal"
         transform="matrix(1.1445508,0,0,1.2238756,-14.281496,36.679541)" />
      <path
         inkscape:connector-curvature="0"
         style="opacity:1;fill:#e6e6e6;fill-opacity:1;fill-rule:nonzero;stroke:#808080;stroke-width:0.20129521;stroke-linecap:round;stroke-linejoin:round;stroke-miterlimit:4;stroke-dasharray:none;stroke-dashoffset:0;stroke-opacity:1;paint-order:normal"
         d="m 107.19499,-57.871095 a 6.4586669,14.978075 0 0 0 -6.45867,14.978076 6.4586669,14.978075 0 0 0 3.57958,13.387968 h 5.77069 a 6.4586669,14.978075 0 0 0 3.56707,-13.387968 6.4586669,14.978075 0 0 0 -6.45867,-14.978076 z"
         id="path5092" />
      <path
         transform="matrix(0.49673822,0,0,1.6549796,59.239449,1.6199783)"
         inkscape:transform-center-y="2.8734573"
         d="m 71.308489,-18.536399 -3.007271,5.208748 -3.007273,5.2087483 -3.007272,-5.2087483 -3.007272,-5.208748 6.014544,0 z"
         inkscape:randomized="0"
         inkscape:rounded="0"
         inkscape:flatsided="false"
         sodipodi:arg2="0.52359878"
         sodipodi:arg1="-0.52359878"
         sodipodi:r2="3.4724989"
         sodipodi:r1="6.9449973"
         sodipodi:cy="-15.0639"
         sodipodi:cx="65.293945"
         sodipodi:sides="3"
         id="path5104"
         style="opacity:1;fill:#ffb000;fill-opacity:1;fill-rule:nonzero;stroke:none;stroke-width:0.52916664;stroke-linecap:round;stroke-linejoin:round;stroke-miterlimit:4;stroke-dasharray:none;stroke-dashoffset:0;stroke-opacity:1;paint-order:normal"
         sodipodi:type="star" />
      <path
         sodipodi:type="star"
         style="opacity:1;fill:#ffff00;fill-opacity:1;fill-rule:nonzero;stroke:none;stroke-width:0.52916664;stroke-linecap:round;stroke-linejoin:round;stroke-miterlimit:4;stroke-dasharray:none;stroke-dashoffset:0;stroke-opacity:1;paint-order:normal"
         id="path5106"
         sodipodi:sides="3"
         sodipodi:cx="65.293945"
         sodipodi:cy="-15.0639"
         sodipodi:r1="6.9449973"
         sodipodi:r2="3.4724989"
         sodipodi:arg1="-0.52359878"
         sodipodi:arg2="0.52359878"
         inkscape:flatsided="false"
         inkscape:rounded="0"
         inkscape:randomized="0"
         d="m 71.308489,-18.536399 -3.007271,5.208748 -3.007273,5.2087483 -3.007272,-5.2087483 -3.007272,-5.208748 6.014544,0 z"
         inkscape:transform-center-y="1.7821076"
         transform="matrix(0.37231405,0,0,1.0264117,67.363594,-10.031406)" />
      <path
         transform="matrix(0.24788988,0,0,0.46968015,75.487739,-20.351204)"
         inkscape:transform-center-y="0.81548276"
         d="m 71.308489,-18.536399 -3.007271,5.208748 -3.007273,5.2087483 -3.007272,-5.2087483 -3.007272,-5.208748 6.014544,0 z"
         inkscape:randomized="0"
         inkscape:rounded="0"
         inkscape:flatsided="false"
         sodipodi:arg2="0.52359878"
         sodipodi:arg1="-0.52359878"
         sodipodi:r2="3.4724989"
         sodipodi:r1="6.9449973"
         sodipodi:cy="-15.0639"
         sodipodi:cx="65.293945"
         sodipodi:sides="3"
         id="path5108"
         style="opacity:1;fill:#83ffff;fill-opacity:1;fill-rule:nonzero;stroke:none;stroke-width:0.52916664;stroke-linecap:round;stroke-linejoin:round;stroke-miterlimit:4;stroke-dasharray:none;stroke-dashoffset:0;stroke-opacity:1;paint-order:normal"
         sodipodi:type="star" />
      <path
         sodipodi:type="star"
         style="opacity:1;fill:#ffb000;fill-opacity:1;fill-rule:nonzero;stroke:none;stroke-width:0.52916664;stroke-linecap:round;stroke-linejoin:round;stroke-miterlimit:4;stroke-dasharray:none;stroke-dashoffset:0;stroke-opacity:1;paint-order:normal"
         id="path5115"
         sodipodi:sides="3"
         sodipodi:cx="65.293945"
         sodipodi:cy="-15.0639"
         sodipodi:r1="6.9449973"
         sodipodi:r2="3.4724989"
         sodipodi:arg1="-0.52359878"
         sodipodi:arg2="0.52359878"
         inkscape:flatsided="false"
         inkscape:rounded="0"
         inkscape:randomized="0"
         d="m 71.308489,-18.536399 -3.007271,5.208748 -3.007273,5.2087483 -3.007272,-5.2087483 -3.007272,-5.208748 6.014544,0 z"
         inkscape:transform-center-y="2.8734573"
         transform="matrix(0.49673822,0,0,1.6549796,90.241372,1.6199783)" />
      <path
         transform="matrix(0.37231405,0,0,1.0264117,98.365517,-10.031406)"
         inkscape:transform-center-y="1.7821076"
         d="m 71.308489,-18.536399 -3.007271,5.208748 -3.007273,5.2087483 -3.007272,-5.2087483 -3.007272,-5.208748 6.014544,0 z"
         inkscape:randomized="0"
         inkscape:rounded="0"
         inkscape:flatsided="false"
         sodipodi:arg2="0.52359878"
         sodipodi:arg1="-0.52359878"
         sodipodi:r2="3.4724989"
         sodipodi:r1="6.9449973"
         sodipodi:cy="-15.0639"
         sodipodi:cx="65.293945"
         sodipodi:sides="3"
         id="path5117"
         style="opacity:1;fill:#ffff00;fill-opacity:1;fill-rule:nonzero;stroke:none;stroke-width:0.52916664;stroke-linecap:round;stroke-linejoin:round;stroke-miterlimit:4;stroke-dasharray:none;stroke-dashoffset:0;stroke-opacity:1;paint-order:normal"
         sodipodi:type="star" />
      <path
         sodipodi:type="star"
         style="opacity:1;fill:#83ffff;fill-opacity:1;fill-rule:nonzero;stroke:none;stroke-width:0.52916664;stroke-linecap:round;stroke-linejoin:round;stroke-miterlimit:4;stroke-dasharray:none;stroke-dashoffset:0;stroke-opacity:1;paint-order:normal"
         id="path5119"
         sodipodi:sides="3"
         sodipodi:cx="65.293945"
         sodipodi:cy="-15.0639"
         sodipodi:r1="6.9449973"
         sodipodi:r2="3.4724989"
         sodipodi:arg1="-0.52359878"
         sodipodi:arg2="0.52359878"
         inkscape:flatsided="false"
         inkscape:rounded="0"
         inkscape:randomized="0"
         d="m 71.308489,-18.536399 -3.007271,5.208748 -3.007273,5.2087483 -3.007272,-5.2087483 -3.007272,-5.208748 6.014544,0 z"
         inkscape:transform-center-y="0.81548276"
         transform="matrix(0.24788988,0,0,0.46968015,106.48966,-20.351204)" />
      <path
         transform="matrix(0.49673822,0,0,1.6549796,74.767809,1.6199783)"
         inkscape:transform-center-y="2.8734573"
         d="m 71.308489,-18.536399 -3.007271,5.208748 -3.007273,5.2087483 -3.007272,-5.2087483 -3.007272,-5.208748 6.014544,0 z"
         inkscape:randomized="0"
         inkscape:rounded="0"
         inkscape:flatsided="false"
         sodipodi:arg2="0.52359878"
         sodipodi:arg1="-0.52359878"
         sodipodi:r2="3.4724989"
         sodipodi:r1="6.9449973"
         sodipodi:cy="-15.0639"
         sodipodi:cx="65.293945"
         sodipodi:sides="3"
         id="path5123"
         style="opacity:1;fill:#ffb000;fill-opacity:1;fill-rule:nonzero;stroke:none;stroke-width:0.52916664;stroke-linecap:round;stroke-linejoin:round;stroke-miterlimit:4;stroke-dasharray:none;stroke-dashoffset:0;stroke-opacity:1;paint-order:normal"
         sodipodi:type="star" />
      <path
         sodipodi:type="star"
         style="opacity:1;fill:#ffff00;fill-opacity:1;fill-rule:nonzero;stroke:none;stroke-width:0.52916664;stroke-linecap:round;stroke-linejoin:round;stroke-miterlimit:4;stroke-dasharray:none;stroke-dashoffset:0;stroke-opacity:1;paint-order:normal"
         id="path5125"
         sodipodi:sides="3"
         sodipodi:cx="65.293945"
         sodipodi:cy="-15.0639"
         sodipodi:r1="6.9449973"
         sodipodi:r2="3.4724989"
         sodipodi:arg1="-0.52359878"
         sodipodi:arg2="0.52359878"
         inkscape:flatsided="false"
         inkscape:rounded="0"
         inkscape:randomized="0"
         d="m 71.308489,-18.536399 -3.007271,5.208748 -3.007273,5.2087483 -3.007272,-5.2087483 -3.007272,-5.208748 6.014544,0 z"
         inkscape:transform-center-y="1.7821076"
         transform="matrix(0.37231405,0,0,1.0264117,82.891954,-10.031406)" />
      <path
         transform="matrix(0.24788988,0,0,0.46968015,91.016099,-20.351204)"
         inkscape:transform-center-y="0.81548276"
         d="m 71.308489,-18.536399 -3.007271,5.208748 -3.007273,5.2087483 -3.007272,-5.2087483 -3.007272,-5.208748 6.014544,0 z"
         inkscape:randomized="0"
         inkscape:rounded="0"
         inkscape:flatsided="false"
         sodipodi:arg2="0.52359878"
         sodipodi:arg1="-0.52359878"
         sodipodi:r2="3.4724989"
         sodipodi:r1="6.9449973"
         sodipodi:cy="-15.0639"
         sodipodi:cx="65.293945"
         sodipodi:sides="3"
         id="path5127"
         style="opacity:1;fill:#83ffff;fill-opacity:1;fill-rule:nonzero;stroke:none;stroke-width:0.52916664;stroke-linecap:round;stroke-linejoin:round;stroke-miterlimit:4;stroke-dasharray:none;stroke-dashoffset:0;stroke-opacity:1;paint-order:normal"
         sodipodi:type="star" />
      <ellipse
         ry="6.6416478"
         rx="6.5481033"
         cy="-91.302536"
         cx="107.19499"
         id="path5140"
         style="opacity:1;fill:#83ffff;fill-opacity:1;fill-rule:nonzero;stroke:#969696;stroke-width:0.52916664;stroke-linecap:round;stroke-linejoin:round;stroke-miterlimit:4;stroke-dasharray:none;stroke-dashoffset:0;stroke-opacity:1;paint-order:normal" />
      <ellipse
         style="opacity:1;fill:none;fill-opacity:1;fill-rule:nonzero;stroke:#ffffff;stroke-width:0.55783671;stroke-linecap:round;stroke-linejoin:round;stroke-miterlimit:4;stroke-dasharray:none;stroke-dashoffset:0;stroke-opacity:1;paint-order:normal"
         id="ellipse5142"
         cx="107.19499"
         cy="-91.302536"
         rx="6.9028773"
         ry="7.0014901" />
      <path
         sodipodi:nodetypes="ccccc"
         inkscape:connector-curvature="0"
         id="path5151"
         d="m 107.10813,-123.24908 -4.22687,7.85754 -4.308051,8.24929 c 3.249091,1.46899 5.098311,2.20869 8.581691,2.22025 z"
         style="opacity:1;fill:#f9f9f9;fill-opacity:1;fill-rule:nonzero;stroke:none;stroke-width:0.59418631;stroke-linecap:round;stroke-linejoin:round;stroke-miterlimit:4;stroke-dasharray:none;stroke-dashoffset:0;stroke-opacity:1;paint-order:normal" />
      <path
         transform="rotate(-90)"
         d="m 97.712322,107.15021 a 6.4077873,6.3102336 0 0 1 -3.203894,5.46482 6.4077873,6.3102336 0 0 1 -6.407787,0 6.4077873,6.3102336 0 0 1 -3.203893,-5.46482"
         sodipodi:open="true"
         sodipodi:end="3.1415927"
         sodipodi:start="0"
         sodipodi:ry="6.3102336"
         sodipodi:rx="6.4077873"
         sodipodi:cy="107.15021"
         sodipodi:cx="91.304535"
         sodipodi:type="arc"
         style="opacity:1;fill:#00c4ff;fill-opacity:1;fill-rule:nonzero;stroke:none;stroke-width:0.51023883;stroke-linecap:round;stroke-linejoin:round;stroke-miterlimit:4;stroke-dasharray:none;stroke-dashoffset:0;stroke-opacity:1;paint-order:normal"
         id="ellipse5156" />
      <ellipse
         transform="scale(-1)"
         style="opacity:1;fill:#ffffff;fill-opacity:1;fill-rule:nonzero;stroke:none;stroke-width:0.05825124;stroke-linecap:round;stroke-linejoin:round;stroke-miterlimit:4;stroke-dasharray:none;stroke-dashoffset:0;stroke-opacity:1;paint-order:normal"
         id="ellipse5160"
         cx="-104.34187"
         cy="94.716904"
         rx="0.67341334"
         ry="0.78259152" />
      <ellipse
         ry="0.361642"
         rx="0.39278033"
         cy="93.360512"
         cx="-105.27731"
         id="ellipse5162"
         style="opacity:1;fill:#ffffff;fill-opacity:1;fill-rule:nonzero;stroke:none;stroke-width:0.03024204;stroke-linecap:round;stroke-linejoin:round;stroke-miterlimit:4;stroke-dasharray:none;stroke-dashoffset:0;stroke-opacity:1;paint-order:normal"
         transform="scale(-1)" />
      <path
         inkscape:connector-curvature="0"
         id="path5164"
         d="m 107.28482,-57.777342 a 6.1817497,14.829891 0 0 0 -0.0831,0.0097 v 28.075357 h 2.85092 a 6.1817497,14.829891 0 0 0 3.41379,-13.255362 6.1817497,14.829891 0 0 0 -6.18162,-14.829717 z"
         style="opacity:1;fill:#d7d7d7;fill-opacity:1;fill-rule:nonzero;stroke:none;stroke-width:0.19595605;stroke-linecap:round;stroke-linejoin:round;stroke-miterlimit:4;stroke-dasharray:none;stroke-dashoffset:0;stroke-opacity:1;paint-order:normal" />
      <path
         sodipodi:nodetypes="cc"
         inkscape:connector-curvature="0"
         id="path5173"
         d="m 91.600477,-78.303608 c 9.852323,5.279949 22.037323,5.274579 31.188573,-0.0089"
         style="fill:none;stroke:#808080;stroke-width:0.26458332px;stroke-linecap:butt;stroke-linejoin:miter;stroke-opacity:1" />
      <path
         style="fill:none;stroke:#808080;stroke-width:0.26458332px;stroke-linecap:butt;stroke-linejoin:miter;stroke-opacity:1"
         d="m 91.600477,-73.011941 c 9.852323,5.279949 22.037323,5.274579 31.188573,-0.0089"
         id="path5175"
         inkscape:connector-curvature="0"
         sodipodi:nodetypes="cc" />
      <path
         inkscape:connector-curvature="0"
         id="path5177"
         d="m 105.50819,-69.235002 c -1.14205,-0.09006 -2.07106,-0.186945 -2.84731,-0.296945 -3.517199,-0.498407 -7.082919,-1.60243 -10.164809,-3.147241 l -0.784626,-0.393298 0.03222,-0.986572 c 0.01772,-0.542614 0.04757,-1.631375 0.06635,-2.41947 0.01879,-0.788094 0.04396,-1.44273 0.05596,-1.454748 0.012,-0.01202 0.500595,0.200231 1.085761,0.471665 4.264354,1.978053 8.441264,2.989847 13.308144,3.223697 l 0.95215,0.04575 v 2.500368 2.500366 l -0.71829,-0.01124 c -0.39506,-0.0061 -0.83855,-0.02075 -0.98555,-0.03233 z"
         style="opacity:1;fill:#f9f9f9;fill-opacity:1;fill-rule:nonzero;stroke:none;stroke-width:0.13372202;stroke-linecap:round;stroke-linejoin:round;stroke-miterlimit:4;stroke-dasharray:none;stroke-dashoffset:0;stroke-opacity:1;paint-order:normal" />
      <path
         inkscape:connector-curvature="0"
         id="path5183"
         d="m 107.20233,-71.699116 v -2.507685 l 1.27753,-0.0463 c 4.84286,-0.175539 9.27442,-1.294105 13.21805,-3.336365 0.49162,-0.254587 0.90289,-0.453742 0.91396,-0.442566 0.011,0.01118 0.0477,1.105904 0.0811,2.432734 0.0561,2.212419 0.052,2.419796 -0.0493,2.501486 -0.21592,0.174195 -2.78393,1.417202 -3.56904,1.727539 -3.4562,1.366155 -7.59798,2.17729 -11.12416,2.178576 l -0.74827,2.69e-4 z"
         style="opacity:1;fill:#d7d7d7;fill-opacity:1;fill-rule:nonzero;stroke:none;stroke-width:0.13366127;stroke-linecap:round;stroke-linejoin:round;stroke-miterlimit:4;stroke-dasharray:none;stroke-dashoffset:0;stroke-opacity:1;paint-order:normal" />
    </g>
  </g>
</svg>
