<?xml version="1.0" encoding="UTF-8" standalone="no"?>
<!-- Created with Inkscape (http://www.inkscape.org/) -->

<svg
   xmlns:dc="http://purl.org/dc/elements/1.1/"
   xmlns:cc="http://creativecommons.org/ns#"
   xmlns:rdf="http://www.w3.org/1999/02/22-rdf-syntax-ns#"
   xmlns:svg="http://www.w3.org/2000/svg"
   xmlns="http://www.w3.org/2000/svg"
   xmlns:sodipodi="http://sodipodi.sourceforge.net/DTD/sodipodi-0.dtd"
   xmlns:inkscape="http://www.inkscape.org/namespaces/inkscape"
   width="144.86443mm"
   height="153.57666mm"
   viewBox="0 0 144.86443 153.57666"
   version="1.1"
   id="svg4730"
   inkscape:version="0.92.2 (5c3e80d, 2017-08-06)"
   sodipodi:docname="satellite.svg">
  <defs
     id="defs4724">
    <mask
       maskUnits="userSpaceOnUse"
       id="mask5422">
      <path
         style="opacity:1;fill:#bbbbbb;fill-opacity:1;fill-rule:nonzero;stroke:#dddddd;stroke-width:0.66643035;stroke-linecap:round;stroke-linejoin:round;stroke-miterlimit:4;stroke-dasharray:none;stroke-dashoffset:0;stroke-opacity:1;paint-order:normal"
         id="path5424"
         sodipodi:type="arc"
         sodipodi:cx="99.825218"
         sodipodi:cy="54.645729"
         sodipodi:rx="16.234419"
         sodipodi:ry="10.44043"
         sodipodi:start="5.3382915e-015"
         sodipodi:end="3.1323202"
         d="M 116.05964,54.645729 A 16.234419,10.44043 0 0 1 99.900484,65.086047 16.234419,10.44043 0 0 1 83.591497,54.742536"
         sodipodi:open="true" />
    </mask>
  </defs>
  <sodipodi:namedview
     id="base"
     pagecolor="#ffffff"
     bordercolor="#666666"
     borderopacity="1.0"
     inkscape:pageopacity="0.0"
     inkscape:pageshadow="2"
     inkscape:zoom="0.98994949"
     inkscape:cx="411.05081"
     inkscape:cy="284.01046"
     inkscape:document-units="mm"
     inkscape:current-layer="layer1"
     showgrid="false"
     inkscape:object-nodes="false"
     inkscape:snap-midpoints="false"
     inkscape:snap-grids="true"
     inkscape:window-width="1352"
     inkscape:window-height="783"
     inkscape:window-x="116"
     inkscape:window-y="159"
     inkscape:window-maximized="0"
     fit-margin-top="10"
     fit-margin-left="10"
     fit-margin-bottom="10"
     fit-margin-right="10" />
  <metadata
     id="metadata4727">
    <rdf:RDF>
      <cc:Work
         rdf:about="">
        <dc:format>image/svg+xml</dc:format>
        <dc:type
           rdf:resource="http://purl.org/dc/dcmitype/StillImage" />
        <dc:title />
      </cc:Work>
    </rdf:RDF>
  </metadata>
  <g
     inkscape:label="Layer 1"
     inkscape:groupmode="layer"
     id="layer1"
     transform="translate(-40.215985,-2.376003)">
    <g
       id="g1061">
      <rect
         transform="rotate(131.96382)"
         y="-109.82658"
         x="-16.807671"
         height="11.455378"
         width="0.31848919"
         id="rect5517"
         style="opacity:1;fill:#dddddd;fill-opacity:1;fill-rule:nonzero;stroke:#dddddd;stroke-width:0.79374999;stroke-linecap:round;stroke-linejoin:round;stroke-miterlimit:4;stroke-dasharray:none;stroke-dashoffset:0;stroke-opacity:1;paint-order:normal" />
      <rect
         transform="rotate(131.96382)"
         y="-156.78741"
         x="-17.804054"
         height="7.7485118"
         width="3.4017856"
         id="rect5345"
         style="opacity:1;fill:#bbbbbb;fill-opacity:1;fill-rule:nonzero;stroke:#dddddd;stroke-width:0.79374999;stroke-linecap:round;stroke-linejoin:round;stroke-miterlimit:4;stroke-dasharray:none;stroke-dashoffset:0;stroke-opacity:1;paint-order:normal" />
      <path
         transform="rotate(131.96382)"
         d="m 2.5164242,-168.71127 a 18.709822,12.851191 0 0 1 -9.3549111,11.12945 18.709822,12.851191 0 0 1 -18.7098221,0 18.709822,12.851191 0 0 1 -9.35491,-11.12945"
         sodipodi:open="true"
         sodipodi:end="3.1415927"
         sodipodi:start="0"
         sodipodi:ry="12.851191"
         sodipodi:rx="18.709822"
         sodipodi:cy="-168.71127"
         sodipodi:cx="-16.193398"
         sodipodi:type="arc"
         id="path5343-7"
         style="opacity:1;fill:#bbbbbb;fill-opacity:1;fill-rule:nonzero;stroke:#dddddd;stroke-width:0.79374999;stroke-linecap:round;stroke-linejoin:round;stroke-miterlimit:4;stroke-dasharray:none;stroke-dashoffset:0;stroke-opacity:1;paint-order:normal" />
      <rect
         transform="rotate(131.96382)"
         y="-140.43184"
         x="-2.1180413"
         height="7.5595236"
         width="8.3154764"
         id="rect5347-9"
         style="opacity:1;fill:#bbbbbb;fill-opacity:1;fill-rule:nonzero;stroke:#dddddd;stroke-width:0.79374999;stroke-linecap:round;stroke-linejoin:round;stroke-miterlimit:4;stroke-dasharray:none;stroke-dashoffset:0;stroke-opacity:1;paint-order:normal" />
      <rect
         transform="rotate(131.96382)"
         y="-140.43184"
         x="-38.970726"
         height="7.5595236"
         width="8.3154764"
         id="rect5347"
         style="opacity:1;fill:#bbbbbb;fill-opacity:1;fill-rule:nonzero;stroke:#dddddd;stroke-width:0.79374999;stroke-linecap:round;stroke-linejoin:round;stroke-miterlimit:4;stroke-dasharray:none;stroke-dashoffset:0;stroke-opacity:1;paint-order:normal" />
      <path
         inkscape:connector-curvature="0"
         id="path5380"
         d="m 127.28822,63.069422 2.53384,2.278582 -1.47438,1.639551 -1.47438,1.639541 -2.53384,-2.278583 -2.53385,-2.278592 1.47438,-1.639541 1.47438,-1.639551 z"
         style="opacity:1;fill:#dddddd;fill-opacity:1;fill-rule:nonzero;stroke:#dddddd;stroke-width:0.4009043;stroke-linecap:round;stroke-linejoin:round;stroke-miterlimit:4;stroke-dasharray:none;stroke-dashoffset:0;stroke-opacity:1;paint-order:normal" />
      <path
         sodipodi:nodetypes="ccccccc"
         inkscape:connector-curvature="0"
         id="rect5340"
         d="M 135.89919,76.93126 124.30481,89.82449 112.41073,103.05098 86.041759,79.031099 C 81.497777,74.748011 85.8839,68.055867 92.451561,60.785126 98.921219,53.750417 104.63029,49.221133 109.56805,53.25268 Z"
         style="opacity:1;fill:#bbbbbb;fill-opacity:1;fill-rule:nonzero;stroke:#000000;stroke-width:0.75926054;stroke-linecap:round;stroke-linejoin:round;stroke-miterlimit:4;stroke-dasharray:none;stroke-dashoffset:0;stroke-opacity:0;paint-order:normal" />
      <path
         transform="matrix(-0.66749977,0.74227571,-0.87105176,-0.78330308,251.89801,67.855267)"
         mask="url(#mask5422)"
         d="M 120.65663,54.765266 A 18.709822,12.851191 0 0 1 101.0542,66.227197 18.709822,12.851191 0 0 1 83.343752,53.394351"
         sodipodi:open="true"
         sodipodi:end="3.1415927"
         sodipodi:start="0.1068794"
         sodipodi:ry="12.851191"
         sodipodi:rx="18.709822"
         sodipodi:cy="53.394352"
         sodipodi:cx="102.05357"
         sodipodi:type="arc"
         id="path5343"
         style="opacity:1;fill:#dddddd;fill-opacity:1;fill-rule:nonzero;stroke:#dddddd;stroke-width:0.79374999;stroke-linecap:round;stroke-linejoin:round;stroke-miterlimit:4;stroke-dasharray:none;stroke-dashoffset:0;stroke-opacity:1;paint-order:normal" />
      <ellipse
         transform="rotate(131.96382)"
         cx="-16.236794"
         cy="-168.17668"
         rx="18.705935"
         ry="5.4767675"
         id="path5366"
         style="opacity:1;fill:#bbbbbb;fill-opacity:1;fill-rule:nonzero;stroke:#dddddd;stroke-width:0.80152357;stroke-linecap:round;stroke-linejoin:round;stroke-miterlimit:4;stroke-dasharray:none;stroke-dashoffset:0;stroke-opacity:1;paint-order:normal" />
      <rect
         transform="rotate(131.96382)"
         y="-174.9877"
         x="-16.504066"
         height="11.358955"
         width="0.8018086"
         id="rect5372"
         style="opacity:1;fill:#bbbbbb;fill-opacity:1;fill-rule:nonzero;stroke:#dddddd;stroke-width:0.79374999;stroke-linecap:round;stroke-linejoin:round;stroke-miterlimit:4;stroke-dasharray:none;stroke-dashoffset:0;stroke-opacity:1;paint-order:normal" />
      <path
         transform="rotate(131.96382)"
         sodipodi:open="true"
         d="m -14.791493,-176.11983 a 1.3116642,1.3116665 0 0 1 -1.294009,1.31155 1.3116642,1.3116665 0 0 1 -1.328844,-1.27624 1.3116642,1.3116665 0 0 1 1.258237,-1.3459 1.3116642,1.3116665 0 0 1 1.362715,1.24"
         sodipodi:end="6.2293438"
         sodipodi:start="0"
         sodipodi:ry="1.3116665"
         sodipodi:rx="1.3116642"
         sodipodi:cy="-176.11983"
         sodipodi:cx="-16.103157"
         sodipodi:type="arc"
         id="path5374"
         style="opacity:1;fill:#bbbbbb;fill-opacity:1;fill-rule:nonzero;stroke:#dddddd;stroke-width:0.14268823;stroke-linecap:round;stroke-linejoin:round;stroke-miterlimit:4;stroke-dasharray:none;stroke-dashoffset:0;stroke-opacity:1;paint-order:normal" />
      <path
         inkscape:connector-curvature="0"
         id="path5378"
         d="m 95.261626,58.497447 c 4.909374,-4.872179 8.403234,-6.781561 11.307174,-6.179338 1.65235,0.342666 0.77068,-0.388005 15.35853,12.727956 l 13.32931,11.98438 -5.62945,6.260093 -5.62945,6.260092 -1.47387,-1.329422 C 121.71348,87.489762 115.85669,82.103949 109.50934,76.252113 103.16199,70.400277 96.81501,64.573151 95.404929,63.302935 l -2.563732,-2.309497 0.616469,-0.658753 c 0.339172,-0.362216 1.15092,-1.18908 1.804045,-1.837329 z"
         style="opacity:1;fill:#dddddd;fill-opacity:1;fill-rule:nonzero;stroke:#dddddd;stroke-width:0.38328192;stroke-linecap:round;stroke-linejoin:round;stroke-miterlimit:4;stroke-dasharray:none;stroke-dashoffset:0;stroke-opacity:1;paint-order:normal" />
      <path
         inkscape:connector-curvature="0"
         id="path5382"
         d="m 126.35213,90.230082 1.04335,0.938237 -0.35742,0.397469 -0.35743,0.397464 -1.04335,-0.938244 -1.04334,-0.938238 0.35742,-0.397468 0.35743,-0.397468 z"
         style="opacity:1;fill:#dddddd;fill-opacity:1;fill-rule:nonzero;stroke:#dddddd;stroke-width:0.4009043;stroke-linecap:round;stroke-linejoin:round;stroke-miterlimit:4;stroke-dasharray:none;stroke-dashoffset:0;stroke-opacity:1;paint-order:normal" />
      <path
         id="rect5275-52"
         d="M 174.29848,34.126551 139.41286,72.920192 115.96126,51.831075 150.84688,13.037434 Z"
         style="opacity:1;fill:#575cff;fill-opacity:1;fill-rule:nonzero;stroke:#dddddd;stroke-width:1.32291663;stroke-linecap:round;stroke-linejoin:round;stroke-miterlimit:4;stroke-dasharray:none;stroke-dashoffset:0;stroke-opacity:1;paint-order:normal"
         inkscape:connector-curvature="0" />
      <g
         transform="rotate(131.96382,108.61931,84.850556)"
         id="g5661">
        <path
           style="fill:none;stroke:#dddddd;stroke-width:0.79374999;stroke-linecap:butt;stroke-linejoin:miter;stroke-miterlimit:4;stroke-dasharray:none;stroke-opacity:1"
           d="m 53.071662,101.47017 c 0,-31.539317 0,-31.539317 0,-31.539317"
           id="path5429"
           inkscape:connector-curvature="0" />
        <path
           style="fill:none;stroke:#dddddd;stroke-width:0.79374999;stroke-linecap:butt;stroke-linejoin:miter;stroke-miterlimit:4;stroke-dasharray:none;stroke-opacity:1"
           d="m 40.254456,101.48097 c 0,-31.53932 0,-31.53932 0,-31.53932"
           id="path5429-3"
           inkscape:connector-curvature="0" />
        <path
           style="fill:none;stroke:#dddddd;stroke-width:0.79374999;stroke-linecap:butt;stroke-linejoin:miter;stroke-miterlimit:4;stroke-dasharray:none;stroke-opacity:1"
           d="m 65.845359,101.66455 c 0,-31.539311 0,-31.539311 0,-31.539311"
           id="path5429-32"
           inkscape:connector-curvature="0" />
        <path
           style="fill:none;stroke:#dddddd;stroke-width:0.79374999;stroke-linecap:butt;stroke-linejoin:miter;stroke-miterlimit:4;stroke-dasharray:none;stroke-opacity:1"
           d="m 26.647321,77.773809 c 52.255207,0 52.255207,0 52.255207,0"
           id="path5485"
           inkscape:connector-curvature="0" />
        <path
           style="fill:none;stroke:#dddddd;stroke-width:0.79374999;stroke-linecap:butt;stroke-linejoin:miter;stroke-miterlimit:4;stroke-dasharray:none;stroke-opacity:1"
           d="m 26.694568,85.427827 c 52.255208,0 52.255208,0 52.255208,0"
           id="path5485-5"
           inkscape:connector-curvature="0" />
        <path
           style="fill:none;stroke:#dddddd;stroke-width:0.79374999;stroke-linecap:butt;stroke-linejoin:miter;stroke-miterlimit:4;stroke-dasharray:none;stroke-opacity:1"
           d="m 26.600075,92.987351 c 52.255208,0 52.255208,0 52.255208,0"
           id="path5485-3"
           inkscape:connector-curvature="0" />
      </g>
      <path
         transform="rotate(131.96382)"
         sodipodi:open="true"
         d="m -15.301777,-97.89875 a 1.3116643,1.3116665 0 0 1 -1.29401,1.311547 1.3116643,1.3116665 0 0 1 -1.328844,-1.276241 1.3116643,1.3116665 0 0 1 1.258237,-1.345904 1.3116643,1.3116665 0 0 1 1.362716,1.24001"
         sodipodi:end="6.2293438"
         sodipodi:start="0"
         sodipodi:ry="1.3116665"
         sodipodi:rx="1.3116643"
         sodipodi:cy="-97.89875"
         sodipodi:cx="-16.613441"
         sodipodi:type="arc"
         id="path5374-7"
         style="opacity:1;fill:#bbbbbb;fill-opacity:1;fill-rule:nonzero;stroke:#dddddd;stroke-width:0.14268823;stroke-linecap:round;stroke-linejoin:round;stroke-miterlimit:4;stroke-dasharray:none;stroke-dashoffset:0;stroke-opacity:1;paint-order:normal" />
      <rect
         transform="rotate(131.96382)"
         y="-152.44542"
         x="6.1375356"
         height="31.586672"
         width="52.171787"
         id="rect5275-5"
         style="opacity:1;fill:#575cff;fill-opacity:1;fill-rule:nonzero;stroke:#dddddd;stroke-width:1.32291663;stroke-linecap:round;stroke-linejoin:round;stroke-miterlimit:4;stroke-dasharray:none;stroke-dashoffset:0;stroke-opacity:1;paint-order:normal" />
      <g
         transform="rotate(131.96382,108.61931,84.850556)"
         id="g5679">
        <path
           style="fill:none;stroke:#dddddd;stroke-width:0.79374999;stroke-linecap:butt;stroke-linejoin:miter;stroke-miterlimit:4;stroke-dasharray:none;stroke-opacity:1"
           d="m 150.44778,101.57276 c 0,-31.53931 0,-31.53931 0,-31.53931"
           id="path5429-1"
           inkscape:connector-curvature="0" />
        <path
           style="fill:none;stroke:#dddddd;stroke-width:0.79374999;stroke-linecap:butt;stroke-linejoin:miter;stroke-miterlimit:4;stroke-dasharray:none;stroke-opacity:1"
           d="m 137.63057,101.58356 c 0,-31.539313 0,-31.539313 0,-31.539313"
           id="path5429-3-7"
           inkscape:connector-curvature="0" />
        <path
           style="fill:none;stroke:#dddddd;stroke-width:0.79374999;stroke-linecap:butt;stroke-linejoin:miter;stroke-miterlimit:4;stroke-dasharray:none;stroke-opacity:1"
           d="m 163.22148,101.76714 c 0,-31.539304 0,-31.539304 0,-31.539304"
           id="path5429-32-8"
           inkscape:connector-curvature="0" />
        <path
           style="fill:none;stroke:#dddddd;stroke-width:0.79374999;stroke-linecap:butt;stroke-linejoin:miter;stroke-miterlimit:4;stroke-dasharray:none;stroke-opacity:1"
           d="m 124.02344,77.876406 c 52.25521,0 52.25521,0 52.25521,0"
           id="path5485-56"
           inkscape:connector-curvature="0" />
        <path
           style="fill:none;stroke:#dddddd;stroke-width:0.79374999;stroke-linecap:butt;stroke-linejoin:miter;stroke-miterlimit:4;stroke-dasharray:none;stroke-opacity:1"
           d="m 124.07069,85.530424 c 52.25521,0 52.25521,0 52.25521,0"
           id="path5485-5-3"
           inkscape:connector-curvature="0" />
        <path
           style="fill:none;stroke:#dddddd;stroke-width:0.79374999;stroke-linecap:butt;stroke-linejoin:miter;stroke-miterlimit:4;stroke-dasharray:none;stroke-opacity:1"
           d="m 123.97619,93.089948 c 52.25521,0 52.25521,0 52.25521,0"
           id="path5485-3-2"
           inkscape:connector-curvature="0" />
      </g>
      <rect
         rx="0.61580706"
         transform="rotate(131.96382)"
         ry="0.53311419"
         y="-139.61598"
         x="-7.5757742"
         height="6.2366071"
         width="4.0632443"
         id="rect5564"
         style="opacity:1;fill:#35ea3a;fill-opacity:1;fill-rule:nonzero;stroke:none;stroke-width:1.65016079;stroke-linecap:round;stroke-linejoin:round;stroke-miterlimit:4;stroke-dasharray:none;stroke-dashoffset:0;stroke-opacity:1;paint-order:normal" />
      <g
         transform="rotate(131.96382,103.79567,87.095156)"
         id="g5592">
        <rect
           rx="0.37276754"
           ry="0.47187695"
           style="opacity:1;fill:#ff5757;fill-opacity:1;fill-rule:nonzero;stroke:none;stroke-width:1.32291663;stroke-linecap:round;stroke-linejoin:round;stroke-miterlimit:4;stroke-dasharray:none;stroke-dashoffset:0;stroke-opacity:1;paint-order:normal"
           id="rect5566"
           width="4.4412203"
           height="1.7008928"
           x="95.533485"
           y="83.065468" />
        <rect
           rx="0.42705625"
           ry="0.55678427"
           style="opacity:1;fill:#ff5757;fill-opacity:1;fill-rule:nonzero;stroke:none;stroke-width:1.32291663;stroke-linecap:round;stroke-linejoin:round;stroke-miterlimit:4;stroke-dasharray:none;stroke-dashoffset:0;stroke-opacity:1;paint-order:normal"
           id="rect5566-1"
           width="4.4412203"
           height="1.7008928"
           x="95.533485"
           y="85.163231" />
        <rect
           rx="0.47187695"
           ry="0.39391938"
           style="opacity:1;fill:#ff5757;fill-opacity:1;fill-rule:nonzero;stroke:none;stroke-width:1.32291663;stroke-linecap:round;stroke-linejoin:round;stroke-miterlimit:4;stroke-dasharray:none;stroke-dashoffset:0;stroke-opacity:1;paint-order:normal"
           id="rect5566-8"
           width="4.4412203"
           height="1.7008928"
           x="95.533485"
           y="87.261017" />
      </g>
      <rect
         transform="rotate(131.96382)"
         y="-140.6078"
         x="-14.823096"
         height="8.2202473"
         width="13.228433"
         id="rect5594"
         style="opacity:1;fill:none;fill-opacity:1;fill-rule:nonzero;stroke:#dddddd;stroke-width:1.07796657;stroke-linecap:round;stroke-linejoin:round;stroke-miterlimit:4;stroke-dasharray:none;stroke-dashoffset:0;stroke-opacity:1;paint-order:normal" />
      <path
         inkscape:connector-curvature="0"
         id="path5958"
         d="m 152.66396,92.329834 c 0.32006,0.05785 1.90813,1.066436 2.86332,1.818485 2.56724,2.021261 4.50301,5.100022 5.37381,8.546821 0.17157,0.6791 0.35371,2.08764 0.40475,3.13007 0.17631,3.60092 -0.59493,6.72474 -2.49454,10.10381 -0.59539,1.05909 -0.94332,1.51348 -2.39439,3.12711 -1.89161,2.10351 -2.64713,2.72427 -4.82072,3.96087 -6.66476,3.7917 -14.82843,2.94319 -19.88671,-2.06696 -1.05028,-1.04029 -2.23911,-2.54732 -2.25567,-2.8594 -0.005,-0.0973 0.62382,-0.51247 1.50273,-0.99192 1.36637,-0.74537 1.52654,-0.80112 1.66714,-0.58033 0.0855,0.13435 0.54417,0.68896 1.01918,1.23246 2.84485,3.25511 7.63464,4.80511 12.13042,3.92547 3.52408,-0.68952 6.47939,-2.48155 8.81349,-5.34428 3.88743,-4.76788 4.44994,-11.29596 1.40032,-16.25132 -1.03129,-1.675759 -2.71883,-3.334212 -4.29241,-4.218429 -0.29131,-0.163692 -0.53164,-0.335053 -0.53407,-0.380804 -0.006,-0.113376 1.18746,-2.978042 1.28667,-3.088367 0.0436,-0.04847 0.14109,-0.07695 0.21668,-0.06328 z"
         style="opacity:1;fill:#b1f2ff;fill-opacity:0.29411765;fill-rule:nonzero;stroke:none;stroke-width:1.33634758;stroke-linecap:round;stroke-linejoin:round;stroke-miterlimit:4;stroke-dasharray:none;stroke-dashoffset:0;stroke-opacity:1;paint-order:normal" />
      <path
         inkscape:connector-curvature="0"
         id="path5960"
         d="m 155.96032,86.127546 c 5.65501,2.751142 9.87643,7.979725 11.44508,14.175664 3.10701,12.27222 -4.04166,25.52224 -16.31997,30.24897 -7.09041,2.72957 -14.65117,2.08484 -20.84126,-1.7772 -1.38678,-0.86523 -3.91435,-3.08639 -4.91905,-4.32275 -0.75576,-0.93001 -1.89961,-2.57904 -1.98043,-2.85508 -0.0375,-0.12816 0.42137,-0.44752 1.65323,-1.15051 0.93784,-0.5352 1.76762,-0.97973 1.84395,-0.98782 0.0763,-0.008 0.43027,0.4187 0.78655,0.94844 0.93744,1.39388 3.43587,3.77295 5.04251,4.80161 6.57137,4.20734 15.38783,3.81291 22.17313,-0.99198 6.09453,-4.31574 9.5824,-11.37976 9.19493,-18.6226 -0.21936,-4.10032 -1.56606,-7.721669 -4.01378,-10.793266 -1.08988,-1.367665 -3.70061,-3.617063 -5.08473,-4.380981 -1.43555,-0.792311 -1.39076,-0.595439 -0.56806,-2.496989 0.40024,-0.925083 0.77205,-1.780105 0.82627,-1.900041 0.0782,-0.173135 0.23514,-0.151606 0.76163,0.104533 z"
         style="opacity:1;fill:#b1f2ff;fill-opacity:0.23529412;fill-rule:nonzero;stroke:none;stroke-width:1.33634758;stroke-linecap:round;stroke-linejoin:round;stroke-miterlimit:4;stroke-dasharray:none;stroke-dashoffset:0;stroke-opacity:1;paint-order:normal" />
      <path
         inkscape:connector-curvature="0"
         id="path5962"
         d="m 159.07202,79.680153 c 10.64805,5.000752 16.96736,16.442421 15.88935,28.769157 -0.50867,5.81671 -2.87516,11.9683 -6.51166,16.92683 -1.33955,1.82652 -4.44846,5.08195 -6.09806,6.38545 -2.90655,2.29672 -5.41999,3.76515 -8.72261,5.09601 -3.55028,1.43065 -6.64977,2.11466 -10.43076,2.3019 -9.6557,0.47815 -18.62365,-3.67996 -24.29412,-11.26432 -0.56547,-0.75633 -1.83987,-2.75835 -1.85135,-2.9084 -0.003,-0.0358 0.84566,-0.54849 1.88535,-1.1392 l 1.89034,-1.07402 0.57555,0.92734 c 1.16047,1.86979 2.08504,2.93307 4.24764,4.88489 1.26248,1.13943 2.36115,2.03978 2.89718,2.37419 7.29445,4.55092 15.8414,5.23573 24.06345,1.92807 4.152,-1.67031 7.67219,-4.16359 10.78859,-7.64133 8.95024,-9.98802 9.96538,-24.0974 2.47441,-34.391398 -0.90957,-1.249933 -1.21215,-1.568406 -3.14118,-3.306243 -2.25407,-2.030655 -3.04514,-2.587876 -5.30568,-3.737258 l -1.07565,-0.546914 0.84847,-1.948454 c 0.46666,-1.071655 0.87236,-1.975024 0.90156,-2.007498 0.0292,-0.03248 0.46533,0.134574 0.96918,0.371198 z"
         style="opacity:1;fill:#b1f2ff;fill-opacity:0.17647059;fill-rule:nonzero;stroke:none;stroke-width:1.33634758;stroke-linecap:round;stroke-linejoin:round;stroke-miterlimit:4;stroke-dasharray:none;stroke-dashoffset:0;stroke-opacity:1;paint-order:normal" />
      <path
         inkscape:connector-curvature="0"
         id="path5985"
         d="m 150.1805,98.150181 c 0.1084,0.0196 0.73173,0.483006 1.38519,1.029802 0.96576,0.80813 1.30975,1.174187 1.83826,1.956047 4.56368,6.75154 -0.0391,16.50553 -8.45657,17.92067 -2.20684,0.37102 -4.66106,-0.0342 -6.66876,-1.10095 -0.83861,-0.4456 -1.23226,-0.74472 -2.16251,-1.64323 -0.62549,-0.60416 -1.14173,-1.18274 -1.14719,-1.28574 -0.006,-0.12387 0.40325,-0.4212 1.21067,-0.87838 l 1.2206,-0.69111 1.03985,0.82492 c 2.27239,1.80271 5.14306,2.20423 7.90151,1.10518 1.51439,-0.60337 2.53241,-1.36752 3.64916,-2.73911 1.47432,-1.8108 2.11983,-3.72926 1.99882,-5.9406 -0.11254,-2.05654 -0.76399,-3.52729 -2.22351,-5.02 l -0.92798,-0.94908 0.46632,-1.077043 c 0.25647,-0.592376 0.51419,-1.182787 0.57269,-1.312024 0.0585,-0.129238 0.19509,-0.218921 0.30345,-0.199352 z"
         style="opacity:1;fill:#b1f2ff;fill-opacity:0.35294118;fill-rule:nonzero;stroke:none;stroke-width:1.33634758;stroke-linecap:round;stroke-linejoin:round;stroke-miterlimit:4;stroke-dasharray:none;stroke-dashoffset:0;stroke-opacity:1;paint-order:normal" />
      <path
         transform="matrix(-0.65977348,0.75146454,-0.73554433,-0.67747659,0,0)"
         sodipodi:open="true"
         d="m -17.079554,-98.226646 a 0.98802543,0.98552793 0 0 1 -0.974726,0.985438 0.98802543,0.98552793 0 0 1 -1.000967,-0.95891 0.98802543,0.98552793 0 0 1 0.947781,-1.011253 0.98802543,0.98552793 0 0 1 1.02648,0.931688"
         sodipodi:end="6.2293438"
         sodipodi:start="0"
         sodipodi:ry="0.98552793"
         sodipodi:rx="0.98802543"
         sodipodi:cy="-98.226646"
         sodipodi:cx="-18.067579"
         sodipodi:type="arc"
         id="path5374-7-2"
         style="opacity:1;fill:#dddddd;fill-opacity:1;fill-rule:nonzero;stroke:#dddddd;stroke-width:0.10734545;stroke-linecap:round;stroke-linejoin:round;stroke-miterlimit:4;stroke-dasharray:none;stroke-dashoffset:0;stroke-opacity:1;paint-order:normal" />
      <path
         transform="rotate(131.96382)"
         sodipodi:open="true"
         d="m -15.551389,-176.12218 a 0.99790668,0.99790829 0 0 1 -0.984475,0.99782 0.99790668,0.99790829 0 0 1 -1.010977,-0.97096 0.99790668,0.99790829 0 0 1 0.95726,-1.02395 0.99790668,0.99790829 0 0 1 1.036746,0.94339"
         sodipodi:end="6.2293438"
         sodipodi:start="0"
         sodipodi:ry="0.99790829"
         sodipodi:rx="0.99790668"
         sodipodi:cy="-176.12218"
         sodipodi:cx="-16.549295"
         sodipodi:type="arc"
         id="path5374-7-1"
         style="opacity:1;fill:#dddddd;fill-opacity:1;fill-rule:nonzero;stroke:#dddddd;stroke-width:0.10855638;stroke-linecap:round;stroke-linejoin:round;stroke-miterlimit:4;stroke-dasharray:none;stroke-dashoffset:0;stroke-opacity:1;paint-order:normal" />
    </g>
  </g>
</svg>
